<svg width="77" height="16" viewBox="0 0 77 16" fill="none" xmlns="http://www.w3.org/2000/svg">
<path d="M5.48258 0H7.14563V1.67219H5.48258V0ZM5.48258 3.64592H7.14563V11.6505C7.13954 12.4546 6.94156 13.1826 6.55168 13.8344C6.16181 14.4923 5.63792 15.0162 4.98001 15.4061C4.3221 15.802 3.59414 16 2.79612 16C2.26613 16 1.76356 15.9086 1.28841 15.7259C0.81325 15.5492 0.383781 15.2994 0 14.9766L1.17876 13.7978C1.64782 14.1572 2.18694 14.337 2.79612 14.337C3.5454 14.337 4.17895 14.075 4.69674 13.5511C5.22064 13.0272 5.48258 12.3937 5.48258 11.6505V3.64592Z" fill="white"/>
<path d="M12.5917 3.68247C13.3897 3.68247 14.1176 3.88045 14.7756 4.27641C15.4396 4.66629 15.9665 5.19018 16.3564 5.84809C16.7523 6.506 16.9503 7.23396 16.9503 8.03198V12.3906H15.2781V11.4495C14.4984 12.0769 13.6029 12.3906 12.5917 12.3906C11.7936 12.3906 11.0657 12.1957 10.4078 11.8058C9.74986 11.4099 9.22292 10.8829 8.82696 10.225C8.43708 9.56101 8.24215 8.83 8.24215 8.03198C8.24215 7.23396 8.43708 6.506 8.82696 5.84809C9.22292 5.19018 9.74986 4.66629 10.4078 4.27641C11.0657 3.88045 11.7936 3.68247 12.5917 3.68247ZM12.3998 5.33638C11.6566 5.33638 11.023 5.59832 10.4991 6.12222C9.97525 6.64611 9.71331 7.27965 9.71331 8.02284C9.71331 8.77213 9.97525 9.40872 10.4991 9.93261C11.023 10.4565 11.6566 10.7184 12.3998 10.7184C13.1491 10.7184 13.7826 10.4565 14.3004 9.93261C14.8243 9.40872 15.0862 8.77213 15.0862 8.02284C15.0862 7.27965 14.8243 6.64611 14.3004 6.12222C13.7826 5.59832 13.1491 5.33638 12.3998 5.33638ZM16.7493 8.15077V8.18732V8.15077ZM16.7493 8.26956V8.31525V8.26956ZM16.7401 8.38835C16.7401 8.40662 16.7371 8.42185 16.731 8.43404C16.7371 8.42185 16.7401 8.40662 16.7401 8.38835ZM16.731 8.50714C16.7249 8.52541 16.7219 8.54064 16.7219 8.55283C16.7219 8.54064 16.7249 8.52541 16.731 8.50714ZM16.7127 8.63507C16.7127 8.64725 16.7097 8.65943 16.7036 8.67162C16.7097 8.65943 16.7127 8.64725 16.7127 8.63507ZM16.6945 8.76299C16.6884 8.76908 16.6853 8.77822 16.6853 8.79041C16.6853 8.77822 16.6884 8.76908 16.6945 8.76299ZM16.667 8.90919C16.661 8.91529 16.6579 8.92138 16.6579 8.92747C16.6579 8.92138 16.661 8.91529 16.667 8.90919ZM16.6396 9.01885C16.6335 9.03103 16.6305 9.04321 16.6305 9.0554C16.6305 9.04321 16.6335 9.03103 16.6396 9.01885ZM16.6122 9.13764C16.6061 9.14982 16.6031 9.162 16.6031 9.17419C16.6031 9.162 16.6061 9.14982 16.6122 9.13764ZM16.5757 9.24729C16.5757 9.25947 16.5726 9.27165 16.5665 9.28384C16.5726 9.27165 16.5757 9.25947 16.5757 9.24729ZM16.5391 9.36608C16.5391 9.37826 16.5361 9.39044 16.53 9.40263C16.5361 9.39044 16.5391 9.37826 16.5391 9.36608ZM16.5026 9.48487C16.4965 9.49096 16.4934 9.50009 16.4934 9.51228C16.4934 9.50009 16.4965 9.49096 16.5026 9.48487ZM16.4112 9.72244C16.4051 9.73463 16.399 9.74376 16.3929 9.74986C16.399 9.74376 16.4051 9.73463 16.4112 9.72244ZM16.3564 9.8321C16.3564 9.84428 16.3533 9.85342 16.3472 9.85951C16.3533 9.85342 16.3564 9.84428 16.3564 9.8321ZM16.3107 9.93261C16.3046 9.94479 16.2985 9.95698 16.2924 9.96916C16.2985 9.95698 16.3046 9.94479 16.3107 9.93261ZM16.2559 10.0423C16.2498 10.0544 16.2437 10.0636 16.2376 10.0697C16.2437 10.0636 16.2498 10.0544 16.2559 10.0423ZM16.201 10.1519C16.1949 10.158 16.1888 10.1641 16.1828 10.1702C16.1888 10.1641 16.1949 10.158 16.201 10.1519ZM16.064 10.3712C16.0579 10.3773 16.0548 10.3804 16.0548 10.3804C16.0548 10.3804 16.0579 10.3773 16.064 10.3712ZM16 10.4717L15.9817 10.49L16 10.4717ZM15.936 10.5631L15.9086 10.5905L15.936 10.5631ZM15.8629 10.6545C15.8568 10.6667 15.8508 10.6758 15.8447 10.6819C15.8508 10.6758 15.8568 10.6667 15.8629 10.6545ZM15.7898 10.7459C15.7837 10.758 15.7777 10.7672 15.7716 10.7733C15.7777 10.7672 15.7837 10.758 15.7898 10.7459ZM15.7076 10.8464C15.7076 10.8525 15.7046 10.8586 15.6985 10.8646C15.7046 10.8586 15.7076 10.8525 15.7076 10.8464ZM15.5431 11.0383C15.537 11.0383 15.5309 11.0413 15.5248 11.0474C15.5309 11.0413 15.537 11.0383 15.5431 11.0383ZM15.4609 11.1114L15.4335 11.1388L15.4609 11.1114ZM15.3786 11.1936L15.3512 11.221L15.3786 11.1936ZM15.2873 11.2758C15.2812 11.2819 15.2751 11.288 15.269 11.2941C15.2751 11.288 15.2812 11.2819 15.2873 11.2758ZM15.205 11.3489C15.1928 11.355 15.1837 11.3611 15.1776 11.3672C15.1837 11.3611 15.1928 11.355 15.205 11.3489Z" fill="white"/>
<path d="M18.056 3.68247H19.719V4.61451C20.4988 3.99315 21.3943 3.68247 22.4055 3.68247C23.1974 3.68247 23.9193 3.87436 24.5711 4.25814C25.2229 4.64192 25.7438 5.15667 26.1336 5.8024C26.5296 6.44203 26.7367 7.16086 26.755 7.95888H26.7641V12.3906H25.0919V8.02284C25.0737 7.26137 24.8087 6.62479 24.297 6.11308C23.7853 5.60137 23.1548 5.34552 22.4055 5.34552C21.6623 5.34552 21.0287 5.60746 20.5049 6.13135C19.981 6.65524 19.719 7.28879 19.719 8.03198V12.3906H18.056V3.68247Z" fill="white"/>
<path d="M36.578 12.3906H34.9058V11.4495C34.126 12.0769 33.2305 12.3906 32.2193 12.3906C31.4335 12.3906 30.7116 12.1987 30.0537 11.815C29.4019 11.4251 28.881 10.9103 28.4911 10.2707C28.1013 9.62498 27.8942 8.90615 27.8698 8.11422V3.68247H29.5328V8.04112C29.5511 8.80868 29.8161 9.44831 30.3278 9.96002C30.8456 10.4656 31.4761 10.7184 32.2193 10.7184C32.9686 10.7184 33.6021 10.4595 34.1199 9.94175C34.6438 9.41786 34.9058 8.78127 34.9058 8.03198V3.68247H36.578V12.3906Z" fill="white"/>
<path d="M41.8321 3.6916H41.9966C42.0575 3.6977 42.1184 3.70379 42.1793 3.70988H42.1885C42.3103 3.71597 42.4291 3.7312 42.5448 3.75557H42.554C42.5844 3.76166 42.6179 3.76775 42.6545 3.77384C42.6728 3.77384 42.691 3.77689 42.7093 3.78298C42.7154 3.78298 42.7245 3.78603 42.7367 3.79212H42.755C42.7733 3.79821 42.7946 3.80126 42.819 3.80126C42.8311 3.80735 42.8433 3.81344 42.8555 3.81953C42.8738 3.81953 42.889 3.82258 42.9012 3.82867H42.9195C42.9256 3.83476 42.9317 3.83781 42.9378 3.83781H42.956C42.9743 3.8439 42.9895 3.84999 43.0017 3.85608C43.0261 3.86217 43.0504 3.86827 43.0748 3.87436C43.0809 3.87436 43.087 3.8774 43.0931 3.8835H43.1205C43.1327 3.88959 43.1479 3.89568 43.1662 3.90177C43.1784 3.90786 43.1875 3.91091 43.1936 3.91091C43.2241 3.92309 43.2545 3.93527 43.285 3.94746H43.2941C43.3307 3.95964 43.3642 3.97183 43.3946 3.98401H43.4038C43.422 3.99619 43.4434 4.00533 43.4677 4.01142C43.4677 4.01142 43.4708 4.01447 43.4769 4.02056H43.486C43.4982 4.02665 43.5073 4.0297 43.5134 4.0297C43.5378 4.04188 43.5622 4.05406 43.5865 4.06625C43.5926 4.06625 43.5987 4.06929 43.6048 4.07539C43.617 4.08148 43.6292 4.08757 43.6413 4.09366H43.6505C43.6627 4.09975 43.6749 4.10584 43.687 4.11194C43.6931 4.11194 43.6992 4.11498 43.7053 4.12107C43.7358 4.13326 43.7662 4.14849 43.7967 4.16676C43.8028 4.17285 43.8119 4.1759 43.8241 4.1759C43.8789 4.20636 43.9368 4.23986 43.9977 4.27641L43.9886 4.26728C44.0008 4.27337 44.0129 4.27946 44.0251 4.28555C44.9328 4.84599 45.5572 5.60442 45.8983 6.56082L44.2993 6.99029C44.0739 6.46031 43.6931 6.03389 43.1571 5.71102C43.1449 5.70493 43.1327 5.69884 43.1205 5.69275C43.1083 5.68666 43.0992 5.68056 43.0931 5.67447C43.0748 5.66838 43.0596 5.65924 43.0474 5.64706L42.9926 5.61965C42.9743 5.61355 42.953 5.60442 42.9286 5.59223C42.9164 5.58614 42.9042 5.58005 42.8921 5.57396C42.8799 5.56787 42.8677 5.56482 42.8555 5.56482C42.8311 5.55264 42.8068 5.54045 42.7824 5.52827C42.7641 5.52218 42.7489 5.51913 42.7367 5.51913L42.6819 5.49172C42.6697 5.49172 42.6606 5.48867 42.6545 5.48258C42.624 5.47649 42.5966 5.4704 42.5722 5.46431C42.5601 5.45821 42.5479 5.45212 42.5357 5.44603H42.5266C42.49 5.43385 42.4565 5.42471 42.426 5.41862C42.4139 5.41862 42.3986 5.41557 42.3804 5.40948C42.356 5.40339 42.3286 5.3973 42.2981 5.3912H42.2616C42.2311 5.38511 42.1976 5.37902 42.1611 5.37293H42.1428C42.1062 5.36684 42.0697 5.36075 42.0331 5.35465H41.9052C41.8869 5.34856 41.8717 5.34552 41.8595 5.34552H41.7407C41.7103 5.35161 41.6828 5.35465 41.6585 5.35465H41.5945C41.5641 5.36075 41.5366 5.36379 41.5123 5.36379H41.5031C41.491 5.36988 41.4757 5.37293 41.4575 5.37293C41.4331 5.37293 41.4118 5.37598 41.3935 5.38207C41.3752 5.38207 41.3569 5.38511 41.3387 5.3912C41.3143 5.3973 41.293 5.40034 41.2747 5.40034C41.2564 5.40643 41.2382 5.41253 41.2199 5.41862C41.2016 5.41862 41.1803 5.42166 41.1559 5.42776C41.1376 5.43385 41.1224 5.43994 41.1102 5.44603C41.0737 5.45212 41.0402 5.46126 41.0097 5.47344H41.0006C40.9884 5.47954 40.9762 5.48258 40.964 5.48258C40.9397 5.49476 40.9153 5.5039 40.8909 5.50999C40.8726 5.51609 40.8574 5.52218 40.8452 5.52827C40.8209 5.54045 40.7995 5.54959 40.7813 5.55568C40.763 5.56177 40.7478 5.56787 40.7356 5.57396C40.7112 5.58614 40.6868 5.59832 40.6625 5.61051C40.6503 5.6166 40.6381 5.62269 40.6259 5.62878C40.5955 5.64097 40.562 5.6562 40.5254 5.67447L40.5071 5.69275C40.4767 5.70493 40.4493 5.72016 40.4249 5.73843C40.4127 5.74453 40.4005 5.75062 40.3884 5.75671C40.364 5.77499 40.3427 5.79022 40.3244 5.8024C40.3122 5.80849 40.3 5.81763 40.2878 5.82981C40.2635 5.84199 40.2391 5.85722 40.2147 5.8755L40.1873 5.90291C40.1569 5.92119 40.1264 5.94555 40.0959 5.97601C40.0899 5.97601 40.0838 5.97906 40.0777 5.98515C40.0594 6.00343 40.0381 6.0217 40.0137 6.03998L44.4455 8.59851L45.9349 9.45745C45.9227 9.48791 45.9105 9.51837 45.8983 9.54883V9.55797C45.8862 9.58843 45.874 9.61888 45.8618 9.64934V9.65848C45.8496 9.68894 45.8374 9.71635 45.8252 9.74072C45.8192 9.74681 45.8161 9.7529 45.8161 9.75899C45.8039 9.78336 45.7917 9.81077 45.7796 9.84123C45.7796 9.84733 45.7765 9.85342 45.7704 9.85951C45.7582 9.88388 45.7461 9.90824 45.7339 9.93261C45.7278 9.94479 45.7217 9.95698 45.7156 9.96916L45.6882 10.024C45.676 10.0484 45.6638 10.0727 45.6516 10.0971C45.6455 10.1032 45.6425 10.1123 45.6425 10.1245C45.6242 10.155 45.6059 10.1854 45.5877 10.2159C45.5694 10.2463 45.5511 10.2768 45.5328 10.3073C45.5267 10.3194 45.5207 10.3316 45.5146 10.3438C45.5024 10.3621 45.4902 10.3804 45.478 10.3986C45.4597 10.4169 45.4445 10.4382 45.4323 10.4626C45.4262 10.4687 45.4201 10.4778 45.4141 10.49C45.4019 10.5144 45.3866 10.5357 45.3684 10.554C45.3623 10.5601 45.3592 10.5662 45.3592 10.5722C45.341 10.5966 45.3227 10.621 45.3044 10.6453C45.2983 10.6514 45.2953 10.6545 45.2953 10.6545L45.1034 10.9012C44.214 11.8698 43.1236 12.3663 41.8321 12.3906H41.6493C41.6189 12.3845 41.5884 12.3815 41.558 12.3815C41.5275 12.3815 41.5001 12.3785 41.4757 12.3724H41.3935C41.3813 12.3724 41.3722 12.3693 41.3661 12.3632H41.3021C41.2899 12.3571 41.2777 12.3541 41.2656 12.3541H41.2199C41.2077 12.348 41.1925 12.3449 41.1742 12.3449C41.162 12.3449 41.1498 12.3419 41.1376 12.3358C41.1194 12.3358 41.1011 12.3328 41.0828 12.3267H41.0463C41.028 12.3206 41.0067 12.3145 40.9823 12.3084H40.9732C40.9488 12.3023 40.9214 12.2962 40.8909 12.2901C40.8605 12.284 40.83 12.2779 40.7995 12.2718C40.3975 12.1805 40.0107 12.0251 39.6391 11.8058C39.6269 11.7997 39.6147 11.7936 39.6025 11.7875L39.6208 11.7967C38.7009 11.2362 38.0704 10.4778 37.7293 9.52142L39.3375 9.09195C39.5629 9.62193 39.9406 10.0484 40.4706 10.3712C40.6716 10.4809 40.8757 10.5662 41.0828 10.6271C41.1133 10.6393 41.1437 10.6484 41.1742 10.6545H41.1833C41.2138 10.6606 41.2412 10.6667 41.2656 10.6728C41.2717 10.6728 41.2808 10.6758 41.293 10.6819C41.3113 10.6819 41.3326 10.6849 41.3569 10.691C41.3691 10.691 41.3813 10.6941 41.3935 10.7002C41.4179 10.7002 41.4392 10.7032 41.4575 10.7093H41.5031C41.5214 10.7154 41.5397 10.7184 41.558 10.7184C41.5762 10.7184 41.5945 10.7215 41.6128 10.7276H41.7499C41.7742 10.7337 41.7986 10.7367 41.823 10.7367H41.8504C41.8747 10.7367 41.9022 10.7337 41.9326 10.7276H42.0331C42.0392 10.7276 42.0484 10.7245 42.0605 10.7184H42.1428C42.6971 10.6453 43.1875 10.42 43.6139 10.0423L39.1822 7.48372L37.7019 6.62479C37.7933 6.36284 37.909 6.11003 38.0491 5.86636C38.4634 5.16581 39.0055 4.62974 39.6756 4.25814C40.3457 3.88654 41.0645 3.6977 41.8321 3.6916Z" fill="white"/>
</svg>
