<svg width="77" height="16" viewBox="0 0 77 16" fill="none" xmlns="http://www.w3.org/2000/svg">
<path d="M4.35947 3.65426C4.89067 3.65426 5.39439 3.74585 5.87064 3.92902C6.35299 4.10609 6.78344 4.35642 7.16199 4.68002L5.9897 5.86148C5.51956 5.50124 4.97615 5.32112 4.35947 5.32112C3.61458 5.32112 2.97958 5.58367 2.45449 6.10876C1.9294 6.63385 1.66686 7.26884 1.66686 8.01374C1.66686 8.76474 1.9294 9.40279 2.45449 9.92788C2.97958 10.453 3.61458 10.7155 4.35947 10.7155C4.97615 10.7155 5.51956 10.5354 5.9897 10.1752L7.16199 11.3566C6.78344 11.6741 6.35299 11.9244 5.87064 12.1076C5.39439 12.2908 4.89067 12.3824 4.35947 12.3824C3.55963 12.3824 2.82999 12.187 2.17058 11.7962C1.51116 11.3994 0.983019 10.8712 0.586148 10.2118C0.195383 9.54627 0 8.81359 0 8.01374C0 7.21389 0.195383 6.48426 0.586148 5.82484C0.983019 5.16543 1.51116 4.64034 2.17058 4.24957C2.82999 3.8527 3.55963 3.65426 4.35947 3.65426Z" fill="white"/>
<path d="M11.4116 3.65426C12.2114 3.65426 12.941 3.8527 13.6005 4.24957C14.266 4.64034 14.7941 5.16543 15.1849 5.82484C15.5818 6.48426 15.7802 7.21389 15.7802 8.01374V12.3824H14.1042V11.439C13.3226 12.0679 12.4251 12.3824 11.4116 12.3824C10.6117 12.3824 9.88208 12.187 9.22267 11.7962C8.56325 11.3994 8.03511 10.8712 7.63824 10.2118C7.24747 9.54627 7.05209 8.81359 7.05209 8.01374C7.05209 7.21389 7.24747 6.48426 7.63824 5.82484C8.03511 5.16543 8.56325 4.64034 9.22267 4.24957C9.88208 3.8527 10.6117 3.65426 11.4116 3.65426ZM11.2192 5.31196C10.4743 5.31196 9.83934 5.57451 9.31425 6.0996C8.78916 6.62469 8.52662 7.25968 8.52662 8.00458C8.52662 8.75558 8.78916 9.39363 9.31425 9.91872C9.83934 10.4438 10.4743 10.7064 11.2192 10.7064C11.9702 10.7064 12.6052 10.4438 13.1242 9.91872C13.6493 9.39363 13.9118 8.75558 13.9118 8.00458C13.9118 7.25968 13.6493 6.62469 13.1242 6.0996C12.6052 5.57451 11.9702 5.31196 11.2192 5.31196Z" fill="white"/>
<path d="M16.8884 0H18.5552V12.3824H16.8884V0Z" fill="white"/>
<path d="M19.6543 0H21.3211V12.3824H19.6543V0Z" fill="white"/>
<path d="M22.4201 0H24.087V1.66686H22.4201V0ZM22.4201 3.65426H24.087V12.3824H22.4201V3.65426Z" fill="white"/>
<path d="M29.2707 3.65426C30.0706 3.65426 30.8002 3.8527 31.4596 4.24957C32.1252 4.64034 32.6533 5.16848 33.0441 5.834C33.4409 6.49342 33.6394 7.22305 33.6394 8.0229C33.6394 8.82274 33.4409 9.55238 33.0441 10.2118C32.6533 10.8712 32.1252 11.3994 31.4596 11.7962C30.8002 12.187 30.0706 12.3824 29.2707 12.3824C28.4709 12.3824 27.7413 12.187 27.0819 11.7962C26.4224 11.3994 25.8943 10.8712 25.4974 10.2118C25.1067 9.55238 24.9113 8.82274 24.9113 8.0229C24.9113 7.22305 25.1067 6.49342 25.4974 5.834C25.8943 5.16848 26.4224 4.64034 27.0819 4.24957C27.7413 3.8527 28.4709 3.65426 29.2707 3.65426ZM29.2982 5.32112C28.5533 5.32112 27.9183 5.58367 27.3932 6.10876C26.8682 6.63385 26.6056 7.26884 26.6056 8.01374C26.6056 8.76474 26.8682 9.40279 27.3932 9.92788C27.9183 10.453 28.5533 10.7155 29.2982 10.7155C30.0492 10.7155 30.6842 10.453 31.2032 9.92788C31.7283 9.40279 31.9908 8.76474 31.9908 8.01374C31.9908 7.26884 31.7283 6.63385 31.2032 6.10876C30.6842 5.58367 30.0492 5.32112 29.2982 5.32112Z" fill="white"/>
<path d="M38.8323 3.61763C38.0324 3.61763 37.3028 3.81607 36.6434 4.21294C35.984 4.6037 35.4558 5.12879 35.059 5.78821C34.6682 6.44762 34.4728 7.17726 34.4728 7.9771V16H36.1397V11.4024C36.9212 12.0313 37.8187 12.3457 38.8323 12.3457C39.6321 12.3457 40.3618 12.1504 41.0212 11.7596C41.6867 11.3627 42.2148 10.8346 42.6056 10.1752C43.0025 9.50964 43.2009 8.77695 43.2009 7.9771C43.2009 7.17726 43.0025 6.44762 42.6056 5.78821C42.2148 5.12879 41.6867 4.6037 41.0212 4.21294C40.3618 3.81607 39.6321 3.61763 38.8323 3.61763ZM38.8323 5.28449C39.5833 5.28449 40.2183 5.54703 40.7373 6.07212C41.2624 6.59721 41.5249 7.23221 41.5249 7.9771C41.5249 8.72811 41.2624 9.36615 40.7373 9.89124C40.2183 10.4163 39.5833 10.6789 38.8323 10.6789C38.0874 10.6789 37.4524 10.4163 36.9273 9.89124C36.4022 9.36615 36.1397 8.72811 36.1397 7.9771C36.1397 7.23221 36.4022 6.59721 36.9273 6.07212C37.4524 5.54703 38.0874 5.28449 38.8323 5.28449Z" fill="white"/>
<path d="M48.158 3.66342H48.561C48.622 3.66953 48.6861 3.67258 48.7533 3.67258C48.8144 3.67869 48.8754 3.68785 48.9365 3.70006H48.9456C49.0067 3.70616 49.0677 3.71532 49.1288 3.72753H49.138C49.199 3.73974 49.257 3.75196 49.312 3.76417H49.3303C49.3852 3.78248 49.4402 3.79775 49.4951 3.80996C49.5012 3.80996 49.5073 3.81301 49.5135 3.81912C49.5684 3.83133 49.6234 3.84659 49.6783 3.86491H49.6966C49.7455 3.88323 49.7974 3.90155 49.8523 3.91986C49.8584 3.92597 49.8645 3.92902 49.8706 3.92902C49.9256 3.94734 49.9775 3.96871 50.0263 3.99313C50.0324 3.99313 50.0416 3.99618 50.0538 4.00229C50.1027 4.02061 50.1484 4.04198 50.1912 4.0664C50.2034 4.07251 50.2126 4.07556 50.2187 4.07556C50.2675 4.09998 50.3133 4.1244 50.356 4.14883C50.3683 4.15493 50.3805 4.16104 50.3927 4.16714C50.4354 4.18546 50.4782 4.20683 50.5209 4.23125C50.5331 4.23736 50.5453 4.24346 50.5575 4.24957C50.5942 4.2801 50.6339 4.30758 50.6766 4.332C50.6888 4.3381 50.701 4.34421 50.7132 4.35031C50.756 4.37474 50.7957 4.40221 50.8323 4.43274C50.8445 4.43885 50.8567 4.44801 50.8689 4.46022L50.9788 4.54264C50.991 4.54875 51.0032 4.55791 51.0155 4.57012L51.1254 4.65255C51.1376 4.66476 51.1498 4.67392 51.162 4.68002V4.68918C51.9313 5.33639 52.4259 6.16981 52.6457 7.18947C52.7006 7.45812 52.7281 7.73593 52.7281 8.0229C52.7281 8.30986 52.7006 8.58767 52.6457 8.85633H45.7951C45.9782 9.40584 46.2988 9.85461 46.7567 10.2026C47.2208 10.5446 47.755 10.7155 48.3595 10.7155C48.9762 10.7155 49.5196 10.5354 49.9897 10.1752L51.162 11.3566C50.7834 11.6802 50.353 11.9336 49.8706 12.1168C49.3944 12.2938 48.8907 12.3824 48.3595 12.3824C47.6573 12.3824 47.004 12.2297 46.3995 11.9244C45.8012 11.6131 45.2975 11.1918 44.8884 10.6606C44.4854 10.1294 44.2168 9.52795 44.0824 8.85633C44.0641 8.75253 44.0488 8.65178 44.0366 8.55409C44.0305 8.54799 44.0275 8.54188 44.0275 8.53578C44.0275 8.50525 44.0244 8.47472 44.0183 8.44419V8.42587C44.0183 8.39534 44.0153 8.36787 44.0092 8.34345V8.23354C44.0031 8.21523 44 8.19386 44 8.16943V7.88552C44 7.85499 44.0031 7.82751 44.0092 7.80309V7.70235C44.0153 7.67792 44.0183 7.65045 44.0183 7.61992V7.59244C44.0244 7.56802 44.0275 7.54055 44.0275 7.51002C44.0275 7.50391 44.0305 7.49781 44.0366 7.4917C44.0366 7.46117 44.0397 7.43064 44.0458 7.40011V7.39096C44.0519 7.35432 44.058 7.32074 44.0641 7.29021C44.0702 7.25358 44.0763 7.22 44.0824 7.18947C44.0946 7.1223 44.1068 7.06125 44.1191 7.0063V6.99714C44.1679 6.81397 44.2259 6.63385 44.2931 6.45678C44.3114 6.40183 44.3328 6.34688 44.3572 6.29193L44.3663 6.28277C44.4396 6.11181 44.522 5.95001 44.6136 5.79737C44.6136 5.79126 44.6167 5.78821 44.6228 5.78821C44.6533 5.73936 44.6838 5.69052 44.7144 5.64167C44.7144 5.63557 44.7174 5.62946 44.7235 5.62335C44.7541 5.57451 44.7876 5.52872 44.8243 5.48598V5.47682C44.8914 5.37913 44.9647 5.28449 45.0441 5.1929C45.0502 5.1929 45.0532 5.18985 45.0532 5.18374C45.0899 5.141 45.1265 5.09826 45.1631 5.05552C45.1692 5.05552 45.1753 5.05247 45.1815 5.04637C45.2181 5.00363 45.2578 4.96394 45.3005 4.9273C45.3005 4.9212 45.3036 4.91815 45.3097 4.91815C45.3952 4.83267 45.4806 4.75329 45.5661 4.68002L45.5753 4.67086L45.7127 4.56096C45.7188 4.56096 45.7249 4.55791 45.731 4.5518C45.7737 4.51517 45.8164 4.48159 45.8592 4.45106C45.8653 4.44495 45.8714 4.4419 45.8775 4.4419C45.9264 4.40527 45.9752 4.37169 46.024 4.34116C46.0729 4.31063 46.1217 4.2801 46.1706 4.24957H46.1889C46.2316 4.21904 46.2805 4.19157 46.3354 4.16714C46.3415 4.16104 46.3476 4.15493 46.3538 4.14883C46.4026 4.1244 46.4514 4.09998 46.5003 4.07556C46.5064 4.07556 46.5156 4.07251 46.5278 4.0664C46.5766 4.04198 46.6255 4.02061 46.6743 4.00229C46.6804 3.99618 46.6865 3.99313 46.6926 3.99313C46.7415 3.97481 46.7934 3.95344 46.8483 3.92902H46.8575L47.0223 3.87407C47.0284 3.86796 47.0345 3.86491 47.0406 3.86491C47.0956 3.84659 47.1505 3.83133 47.2055 3.81912C47.2116 3.81301 47.2208 3.80996 47.233 3.80996C47.2879 3.79775 47.3398 3.78248 47.3887 3.76417H47.4161C47.4711 3.75196 47.526 3.73974 47.581 3.72753H47.5902C47.6451 3.71532 47.7031 3.70616 47.7642 3.70006H47.7916C47.8466 3.69395 47.9015 3.68785 47.9565 3.68174C47.9626 3.67563 47.9718 3.67258 47.984 3.67258C48.0389 3.67258 48.0969 3.66953 48.158 3.66342ZM48.3595 5.33028C48.2862 5.33028 48.2129 5.33333 48.1397 5.33944H48.1305C48.0633 5.34554 47.9962 5.35165 47.929 5.35776C47.9229 5.36386 47.9168 5.36691 47.9107 5.36691C47.8435 5.37913 47.7764 5.39134 47.7092 5.40355H47.7001C47.6329 5.42187 47.5688 5.44324 47.5077 5.46766H47.4986C47.4314 5.48598 47.3673 5.5104 47.3062 5.54093H47.2971C47.236 5.56535 47.175 5.59588 47.1139 5.63251H47.1048C47.0498 5.66304 46.9918 5.69662 46.9307 5.73326C46.8697 5.76989 46.8117 5.80958 46.7567 5.85232C46.6468 5.93169 46.543 6.02023 46.4453 6.11792V6.12708C46.3965 6.17592 46.3507 6.22477 46.308 6.27361H46.2988C46.2561 6.32856 46.2164 6.38351 46.1797 6.43847H46.1706C46.0118 6.66438 45.8867 6.91471 45.7951 7.18947H50.9239C50.7407 6.63995 50.4232 6.19729 49.9714 5.86148C49.9653 5.85537 49.9592 5.84927 49.9531 5.84316C49.9042 5.80653 49.8523 5.77294 49.7974 5.74242C49.7913 5.73631 49.7852 5.7302 49.779 5.7241C49.7241 5.69357 49.6722 5.66304 49.6234 5.63251C49.6111 5.63251 49.602 5.62946 49.5959 5.62335L49.431 5.54093C49.4249 5.54093 49.4158 5.53787 49.4035 5.53177C49.3486 5.50735 49.2906 5.48598 49.2295 5.46766C49.2234 5.46766 49.2173 5.46461 49.2112 5.4585L49.0189 5.40355H49.0097C48.9426 5.38523 48.8754 5.37302 48.8082 5.36691L48.7991 5.35776C48.7258 5.35165 48.6556 5.34554 48.5884 5.33944H48.5793C48.506 5.33333 48.4327 5.33028 48.3595 5.33028Z" fill="white"/>
</svg>
