<svg width="77" height="16" viewBox="0 0 77 16" fill="none" xmlns="http://www.w3.org/2000/svg">
<path d="M4.16175 10.2208C3.45064 10.2208 2.84444 9.97304 2.34317 9.4776C1.84189 8.97632 1.59126 8.36721 1.59126 7.65027C1.59126 6.93916 1.84189 6.33297 2.34317 5.83169C2.84444 5.33042 3.45064 5.07978 4.16175 5.07978C4.87869 5.07978 5.48488 5.33042 5.98033 5.83169C6.4816 6.33297 6.73224 6.93916 6.73224 7.65027C6.73224 8.36721 6.4816 8.97632 5.98033 9.4776C5.48488 9.97304 4.87869 10.2208 4.16175 10.2208ZM8.3235 7.53661V7.50164V7.53661ZM8.3235 7.42295V7.37924V7.42295ZM8.31475 7.30055C8.31475 7.28889 8.31184 7.27723 8.30601 7.26557C8.31184 7.27723 8.31475 7.28889 8.31475 7.30055ZM8.30601 7.18689C8.30018 7.17523 8.29727 7.16066 8.29727 7.14317C8.29727 7.16066 8.30018 7.17523 8.30601 7.18689ZM8.28852 7.07322C8.28852 7.06157 8.28561 7.04991 8.27978 7.03825C8.28561 7.04991 8.28852 7.06157 8.28852 7.07322ZM8.27104 6.95082C8.26521 6.93916 8.26229 6.93042 8.26229 6.92459C8.26229 6.93042 8.26521 6.93916 8.27104 6.95082ZM8.24481 6.81093C8.23898 6.8051 8.23606 6.79927 8.23606 6.79344C8.23606 6.79927 8.23898 6.8051 8.24481 6.81093ZM8.21858 6.70601C8.21275 6.68852 8.20984 6.67395 8.20984 6.6623C8.20984 6.67395 8.21275 6.68852 8.21858 6.70601ZM8.19235 6.59235C8.18652 6.58069 8.18361 6.56903 8.18361 6.55738C8.18361 6.56903 8.18652 6.58069 8.19235 6.59235ZM8.15738 6.48743C8.15738 6.46995 8.15446 6.45537 8.14863 6.44372C8.15446 6.45537 8.15738 6.46995 8.15738 6.48743ZM8.1224 6.37377C8.1224 6.36211 8.11949 6.35046 8.11366 6.3388C8.11949 6.35046 8.1224 6.36211 8.1224 6.37377ZM8.08743 6.26011C8.0816 6.25428 8.07869 6.24554 8.07869 6.23388C8.07869 6.24554 8.0816 6.25428 8.08743 6.26011ZM8 6.02404C7.99417 6.01822 7.98834 6.00947 7.98251 5.99781C7.98834 6.00947 7.99417 6.01822 8 6.02404ZM7.94754 5.92787C7.94754 5.91621 7.94463 5.90455 7.9388 5.8929C7.94463 5.90455 7.94754 5.91621 7.94754 5.92787ZM7.90382 5.82295C7.898 5.81129 7.89217 5.79964 7.88634 5.78798C7.89217 5.79964 7.898 5.81129 7.90382 5.82295ZM7.85137 5.72678C7.84554 5.71512 7.83971 5.70346 7.83388 5.6918C7.83971 5.70346 7.84554 5.71512 7.85137 5.72678ZM7.79891 5.62186C7.79308 5.61603 7.78725 5.60729 7.78142 5.59563C7.78725 5.60729 7.79308 5.61603 7.79891 5.62186ZM7.66776 5.40328C7.66193 5.40328 7.65902 5.40036 7.65902 5.39454C7.65902 5.40036 7.66193 5.40328 7.66776 5.40328ZM7.60656 5.31585C7.60073 5.31002 7.5949 5.30128 7.58907 5.28962C7.5949 5.30128 7.60073 5.31002 7.60656 5.31585ZM7.54535 5.22842L7.51913 5.20219L7.54535 5.22842ZM7.47541 5.14098C7.46958 5.12933 7.46375 5.11767 7.45792 5.10601C7.46375 5.11767 7.46958 5.12933 7.47541 5.14098ZM7.40546 5.04481C7.39964 5.03898 7.39381 5.03315 7.38798 5.02732C7.39381 5.03315 7.39964 5.03898 7.40546 5.04481ZM7.32678 4.95738C7.32678 4.95155 7.32386 4.94572 7.31803 4.93989C7.32386 4.94572 7.32678 4.95155 7.32678 4.95738ZM7.1694 4.77377C7.16357 4.76794 7.15774 4.76503 7.15191 4.76503C7.15774 4.76503 7.16357 4.76794 7.1694 4.77377ZM7.09071 4.69508C7.08488 4.68925 7.07614 4.68342 7.06448 4.6776C7.07614 4.68342 7.08488 4.68925 7.09071 4.69508ZM7.01202 4.62514L6.98579 4.59891L7.01202 4.62514ZM6.92459 4.54645C6.91876 4.54062 6.91293 4.53188 6.9071 4.52022C6.91293 4.53188 6.91876 4.54062 6.92459 4.54645ZM6.8459 4.46776C6.83424 4.46193 6.8255 4.4561 6.81967 4.45027C6.8255 4.4561 6.83424 4.46193 6.8459 4.46776ZM4.16175 11.8208C4.92532 11.8208 5.62186 11.6342 6.25137 11.2612C6.8867 10.8823 7.39089 10.3781 7.76393 9.74863C8.14281 9.1133 8.33224 8.41384 8.33224 7.65027V0H6.73224V4.38033C5.98616 3.78579 5.12933 3.48852 4.16175 3.48852C3.39818 3.48852 2.70164 3.67796 2.07213 4.05683C1.44262 4.42987 0.938433 4.93115 0.559563 5.56066C0.186521 6.19016 0 6.8867 0 7.65027C0 8.41384 0.186521 9.1133 0.559563 9.74863C0.938433 10.3781 1.44262 10.8823 2.07213 11.2612C2.70164 11.6342 3.39818 11.8208 4.16175 11.8208Z" fill="white"/>
<path d="M9.39016 0H10.9814V1.59126H9.39016V0ZM9.39016 3.48852H10.9814V11.8208H9.39016V3.48852Z" fill="white"/>
<path d="M15.9301 3.48852C16.6936 3.48852 17.3902 3.67796 18.0197 4.05683C18.655 4.42987 19.1592 4.93406 19.5322 5.5694C19.9111 6.19891 20.1005 6.89545 20.1005 7.65902C20.1005 8.42259 19.9111 9.11913 19.5322 9.74863C19.1592 10.3781 18.655 10.8823 18.0197 11.2612C17.3902 11.6342 16.6936 11.8208 15.9301 11.8208C15.1665 11.8208 14.4699 11.6342 13.8404 11.2612C13.2109 10.8823 12.7067 10.3781 12.3279 9.74863C11.9548 9.11913 11.7683 8.42259 11.7683 7.65902C11.7683 6.89545 11.9548 6.19891 12.3279 5.5694C12.7067 4.93406 13.2109 4.42987 13.8404 4.05683C14.4699 3.67796 15.1665 3.48852 15.9301 3.48852ZM15.9563 5.07978C15.2452 5.07978 14.639 5.33042 14.1377 5.83169C13.6364 6.33297 13.3858 6.93916 13.3858 7.65027C13.3858 8.36721 13.6364 8.97632 14.1377 9.4776C14.639 9.97887 15.2452 10.2295 15.9563 10.2295C16.6732 10.2295 17.2794 9.97887 17.7749 9.4776C18.2761 8.97632 18.5268 8.36721 18.5268 7.65027C18.5268 6.93916 18.2761 6.33297 17.7749 5.83169C17.2794 5.33042 16.6732 5.07978 15.9563 5.07978Z" fill="white"/>
<path d="M20.8962 3.48852H22.4874V4.38033C23.2335 3.78579 24.0903 3.48852 25.0579 3.48852C25.8157 3.48852 26.5064 3.67213 27.1301 4.03934C27.7537 4.40656 28.2521 4.89909 28.6251 5.51694C29.004 6.12896 29.2022 6.81676 29.2197 7.58033H29.2284V11.8208H27.6284V7.64153C27.6109 6.91293 27.3574 6.30383 26.8678 5.81421C26.3781 5.32459 25.7749 5.07978 25.0579 5.07978C24.3468 5.07978 23.7406 5.33042 23.2393 5.83169C22.7381 6.33297 22.4874 6.93916 22.4874 7.65027V11.8208H20.8962V3.48852Z" fill="white"/>
<path d="M30.2863 3.50601H31.8776V7.6765C31.8893 8.27104 32.0612 8.7898 32.3934 9.23279C32.7315 9.66995 33.1687 9.97013 33.7049 10.1333C34.247 9.9643 34.6871 9.65829 35.0251 9.2153C35.3632 8.77231 35.5322 8.25647 35.5322 7.66776V3.50601H37.1235V11.8383C37.1177 12.6077 36.9282 13.3042 36.5552 13.9279C36.1821 14.5574 35.6809 15.0587 35.0514 15.4317C34.4219 15.8106 33.7253 16 32.9617 16C32.4546 16 31.9738 15.9126 31.5191 15.7377C31.0645 15.5687 30.6536 15.3297 30.2863 15.0208L31.4142 13.8929C31.863 14.2368 32.3789 14.4087 32.9617 14.4087C33.6787 14.4087 34.2849 14.1581 34.7803 13.6568C35.2816 13.1556 35.5322 12.5494 35.5322 11.8383V10.9377C35.2058 11.2 34.8444 11.4069 34.4481 11.5585H32.9617C32.1807 11.2495 31.5454 10.757 31.0557 10.0809C30.5719 9.40474 30.3155 8.62659 30.2863 7.74645V3.50601Z" fill="white"/>
<path d="M42.1421 3.49727H42.2994C42.3577 3.5031 42.416 3.50893 42.4743 3.51475H42.4831C42.5996 3.52058 42.7133 3.53515 42.824 3.55847H42.8328C42.8619 3.5643 42.894 3.57013 42.929 3.57596C42.9464 3.57596 42.9639 3.57887 42.9814 3.5847C42.9872 3.5847 42.996 3.58761 43.0076 3.59344H43.0251C43.0426 3.59927 43.063 3.60219 43.0863 3.60219C43.098 3.60801 43.1097 3.61384 43.1213 3.61967C43.1388 3.61967 43.1534 3.62259 43.165 3.62842H43.1825C43.1883 3.63424 43.1942 3.63716 43.2 3.63716H43.2175C43.235 3.64299 43.2495 3.64882 43.2612 3.65464C43.2845 3.66047 43.3078 3.6663 43.3311 3.67213C43.337 3.67213 43.3428 3.67505 43.3486 3.68087H43.3749C43.3865 3.6867 43.4011 3.69253 43.4186 3.69836C43.4302 3.70419 43.439 3.7071 43.4448 3.7071C43.4739 3.71876 43.5031 3.73042 43.5322 3.74208H43.541C43.576 3.75373 43.608 3.76539 43.6372 3.77705H43.6459C43.6634 3.78871 43.6838 3.79745 43.7071 3.80328C43.7071 3.80328 43.71 3.80619 43.7158 3.81202H43.7246C43.7362 3.81785 43.745 3.82077 43.7508 3.82077C43.7741 3.83242 43.7974 3.84408 43.8208 3.85574C43.8266 3.85574 43.8324 3.85865 43.8382 3.86448C43.8499 3.87031 43.8616 3.87614 43.8732 3.88197H43.882C43.8936 3.8878 43.9053 3.89362 43.9169 3.89945C43.9228 3.89945 43.9286 3.90237 43.9344 3.9082C43.9636 3.91985 43.9927 3.93443 44.0219 3.95191C44.0277 3.95774 44.0364 3.96066 44.0481 3.96066C44.1005 3.9898 44.1559 4.02186 44.2142 4.05683L44.2055 4.04809C44.2171 4.05392 44.2288 4.05975 44.2404 4.06557C45.1089 4.60182 45.7064 5.3275 46.0328 6.24262L44.5027 6.65355C44.2871 6.14645 43.9228 5.73843 43.4098 5.42951C43.3982 5.42368 43.3865 5.41785 43.3749 5.41202C43.3632 5.40619 43.3545 5.40036 43.3486 5.39454C43.3311 5.38871 43.3166 5.37996 43.3049 5.36831L43.2525 5.34208C43.235 5.33625 43.2146 5.3275 43.1913 5.31585C43.1796 5.31002 43.1679 5.30419 43.1563 5.29836C43.1446 5.29253 43.133 5.28962 43.1213 5.28962C43.098 5.27796 43.0747 5.2663 43.0514 5.25464C43.0339 5.24882 43.0193 5.2459 43.0076 5.2459L42.9552 5.21967C42.9435 5.21967 42.9348 5.21676 42.929 5.21093C42.8998 5.2051 42.8736 5.19927 42.8503 5.19344C42.8386 5.18761 42.827 5.18179 42.8153 5.17596H42.8066C42.7716 5.1643 42.7395 5.15556 42.7104 5.14973C42.6987 5.14973 42.6842 5.14681 42.6667 5.14098C42.6433 5.13515 42.6171 5.12933 42.588 5.1235H42.553C42.5239 5.11767 42.4918 5.11184 42.4568 5.10601H42.4393C42.4044 5.10018 42.3694 5.09435 42.3344 5.08852H42.212C42.1945 5.0827 42.18 5.07978 42.1683 5.07978H42.0546C42.0255 5.08561 41.9993 5.08852 41.976 5.08852H41.9148C41.8856 5.09435 41.8594 5.09727 41.8361 5.09727H41.8273C41.8157 5.1031 41.8011 5.10601 41.7836 5.10601C41.7603 5.10601 41.7399 5.10893 41.7224 5.11475C41.7049 5.11475 41.6874 5.11767 41.6699 5.1235C41.6466 5.12933 41.6262 5.13224 41.6087 5.13224C41.5913 5.13807 41.5738 5.1439 41.5563 5.14973C41.5388 5.14973 41.5184 5.15264 41.4951 5.15847C41.4776 5.1643 41.463 5.17013 41.4514 5.17596C41.4164 5.18179 41.3843 5.19053 41.3552 5.20219H41.3464C41.3348 5.20801 41.3231 5.21093 41.3115 5.21093C41.2882 5.22259 41.2648 5.23133 41.2415 5.23716C41.224 5.24299 41.2095 5.24882 41.1978 5.25464C41.1745 5.2663 41.1541 5.27505 41.1366 5.28087C41.1191 5.2867 41.1046 5.29253 41.0929 5.29836C41.0696 5.31002 41.0463 5.32168 41.0229 5.33333C41.0113 5.33916 40.9996 5.34499 40.988 5.35082C40.9588 5.36248 40.9268 5.37705 40.8918 5.39454L40.8743 5.41202C40.8452 5.42368 40.8189 5.43825 40.7956 5.45574C40.784 5.46157 40.7723 5.4674 40.7607 5.47322C40.7373 5.49071 40.7169 5.50528 40.6995 5.51694C40.6878 5.52277 40.6761 5.53151 40.6645 5.54317C40.6412 5.55483 40.6178 5.5694 40.5945 5.58689L40.5683 5.61311C40.5392 5.6306 40.51 5.65392 40.4809 5.68306C40.475 5.68306 40.4692 5.68597 40.4634 5.6918C40.4459 5.70929 40.4255 5.72678 40.4022 5.74426L44.6426 8.19235L46.0678 9.01421C46.0561 9.04335 46.0444 9.0725 46.0328 9.10164V9.11038C46.0211 9.13953 46.0095 9.16867 45.9978 9.19781V9.20656C45.9862 9.2357 45.9745 9.26193 45.9628 9.28525C45.957 9.29107 45.9541 9.2969 45.9541 9.30273C45.9424 9.32605 45.9308 9.35228 45.9191 9.38142C45.9191 9.38725 45.9162 9.39308 45.9104 9.39891C45.8987 9.42222 45.8871 9.44554 45.8754 9.46885C45.8696 9.48051 45.8638 9.49217 45.8579 9.50383L45.8317 9.55628C45.82 9.5796 45.8084 9.60291 45.7967 9.62623C45.7909 9.63206 45.788 9.6408 45.788 9.65246C45.7705 9.6816 45.753 9.71075 45.7355 9.73989C45.718 9.76903 45.7005 9.79818 45.6831 9.82732C45.6772 9.83898 45.6714 9.85064 45.6656 9.8623C45.6539 9.87978 45.6423 9.89727 45.6306 9.91475C45.6131 9.93224 45.5985 9.95264 45.5869 9.97596C45.5811 9.98178 45.5752 9.99053 45.5694 10.0022C45.5577 10.0255 45.5432 10.0459 45.5257 10.0634C45.5199 10.0692 45.5169 10.075 45.5169 10.0809C45.4995 10.1042 45.482 10.1275 45.4645 10.1508C45.4586 10.1566 45.4557 10.1596 45.4557 10.1596L45.2721 10.3956C44.4211 11.3224 43.3778 11.7975 42.1421 11.8208H41.9672C41.9381 11.8149 41.9089 11.812 41.8798 11.812C41.8506 11.812 41.8244 11.8091 41.8011 11.8033H41.7224C41.7107 11.8033 41.702 11.8004 41.6962 11.7945H41.635C41.6233 11.7887 41.6117 11.7858 41.6 11.7858H41.5563C41.5446 11.78 41.5301 11.777 41.5126 11.777C41.5009 11.777 41.4893 11.7741 41.4776 11.7683C41.4601 11.7683 41.4426 11.7654 41.4251 11.7596H41.3902C41.3727 11.7537 41.3523 11.7479 41.329 11.7421H41.3202C41.2969 11.7362 41.2707 11.7304 41.2415 11.7246C41.2124 11.7188 41.1832 11.7129 41.1541 11.7071C40.7694 11.6197 40.3993 11.471 40.0437 11.2612C40.0321 11.2554 40.0204 11.2495 40.0087 11.2437L40.0262 11.2525C39.1461 10.7162 38.5428 9.99053 38.2164 9.07541L39.7552 8.66448C39.9709 9.17159 40.3322 9.5796 40.8393 9.88853C41.0317 9.99344 41.227 10.075 41.4251 10.1333C41.4543 10.145 41.4834 10.1537 41.5126 10.1596H41.5213C41.5505 10.1654 41.5767 10.1712 41.6 10.177C41.6058 10.177 41.6146 10.18 41.6262 10.1858C41.6437 10.1858 41.6641 10.1887 41.6874 10.1945C41.6991 10.1945 41.7107 10.1974 41.7224 10.2033C41.7457 10.2033 41.7661 10.2062 41.7836 10.212H41.8273C41.8448 10.2179 41.8623 10.2208 41.8798 10.2208C41.8973 10.2208 41.9148 10.2237 41.9322 10.2295H42.0634C42.0867 10.2353 42.11 10.2383 42.1333 10.2383H42.1596C42.1829 10.2383 42.2091 10.2353 42.2383 10.2295H42.3344C42.3403 10.2295 42.349 10.2266 42.3607 10.2208H42.4393C42.9698 10.1508 43.439 9.93515 43.847 9.57377L39.6066 7.12568L38.1902 6.30383C38.2776 6.05319 38.3883 5.81129 38.5224 5.57814C38.9188 4.90783 39.4375 4.3949 40.0787 4.03934C40.7199 3.68379 41.4076 3.5031 42.1421 3.49727Z" fill="white"/>
<path d="M55.4579 11.8208H53.8579V10.9202C53.1118 11.5206 52.255 11.8208 51.2874 11.8208C50.5355 11.8208 49.8448 11.6372 49.2153 11.2699C48.5916 10.8969 48.0933 10.4044 47.7202 9.79235C47.3472 9.1745 47.149 8.4867 47.1257 7.72896V3.48852H48.7169V7.65902C48.7344 8.39344 48.988 9.00546 49.4776 9.49508C49.973 9.97887 50.5763 10.2208 51.2874 10.2208C52.0044 10.2208 52.6106 9.97304 53.106 9.4776C53.6073 8.97632 53.8579 8.36721 53.8579 7.65027V3.48852H55.4579V11.8208Z" fill="white"/>
<path d="M60.4852 3.49727H60.6426C60.7009 3.5031 60.7592 3.50893 60.8175 3.51475H60.8262C60.9428 3.52058 61.0565 3.53515 61.1672 3.55847H61.176C61.2051 3.5643 61.2372 3.57013 61.2721 3.57596C61.2896 3.57596 61.3071 3.57887 61.3246 3.5847C61.3304 3.5847 61.3392 3.58761 61.3508 3.59344H61.3683C61.3858 3.59927 61.4062 3.60219 61.4295 3.60219C61.4412 3.60801 61.4528 3.61384 61.4645 3.61967C61.482 3.61967 61.4965 3.62259 61.5082 3.62842H61.5257C61.5315 3.63424 61.5373 3.63716 61.5432 3.63716H61.5607C61.5781 3.64299 61.5927 3.64882 61.6044 3.65464C61.6277 3.66047 61.651 3.6663 61.6743 3.67213C61.6801 3.67213 61.686 3.67505 61.6918 3.68087H61.718C61.7297 3.6867 61.7443 3.69253 61.7617 3.69836C61.7734 3.70419 61.7821 3.7071 61.788 3.7071C61.8171 3.71876 61.8463 3.73042 61.8754 3.74208H61.8842C61.9191 3.75373 61.9512 3.76539 61.9803 3.77705H61.9891C62.0066 3.78871 62.027 3.79745 62.0503 3.80328C62.0503 3.80328 62.0532 3.80619 62.059 3.81202H62.0678C62.0794 3.81785 62.0882 3.82077 62.094 3.82077C62.1173 3.83242 62.1406 3.84408 62.1639 3.85574C62.1698 3.85574 62.1756 3.85865 62.1814 3.86448C62.1931 3.87031 62.2047 3.87614 62.2164 3.88197H62.2251C62.2368 3.8878 62.2484 3.89362 62.2601 3.89945C62.2659 3.89945 62.2718 3.90237 62.2776 3.9082C62.3067 3.91985 62.3359 3.93443 62.365 3.95191C62.3709 3.95774 62.3796 3.96066 62.3913 3.96066C62.4437 3.9898 62.4991 4.02186 62.5574 4.05683L62.5486 4.04809C62.5603 4.05392 62.5719 4.05975 62.5836 4.06557C63.4521 4.60182 64.0495 5.3275 64.376 6.24262L62.8459 6.65355C62.6302 6.14645 62.2659 5.73843 61.753 5.42951C61.7413 5.42368 61.7297 5.41785 61.718 5.41202C61.7064 5.40619 61.6976 5.40036 61.6918 5.39454C61.6743 5.38871 61.6597 5.37996 61.6481 5.36831L61.5956 5.34208C61.5781 5.33625 61.5577 5.3275 61.5344 5.31585C61.5228 5.31002 61.5111 5.30419 61.4995 5.29836C61.4878 5.29253 61.4761 5.28962 61.4645 5.28962C61.4412 5.27796 61.4178 5.2663 61.3945 5.25464C61.377 5.24882 61.3625 5.2459 61.3508 5.2459L61.2984 5.21967C61.2867 5.21967 61.278 5.21676 61.2721 5.21093C61.243 5.2051 61.2168 5.19927 61.1934 5.19344C61.1818 5.18761 61.1701 5.18179 61.1585 5.17596H61.1497C61.1147 5.1643 61.0827 5.15556 61.0536 5.14973C61.0419 5.14973 61.0273 5.14681 61.0098 5.14098C60.9865 5.13515 60.9603 5.12933 60.9311 5.1235H60.8962C60.867 5.11767 60.835 5.11184 60.8 5.10601H60.7825C60.7475 5.10018 60.7126 5.09435 60.6776 5.08852H60.5552C60.5377 5.0827 60.5231 5.07978 60.5115 5.07978H60.3978C60.3687 5.08561 60.3424 5.08852 60.3191 5.08852H60.2579C60.2288 5.09435 60.2025 5.09727 60.1792 5.09727H60.1705C60.1588 5.1031 60.1443 5.10601 60.1268 5.10601C60.1035 5.10601 60.0831 5.10893 60.0656 5.11475C60.0481 5.11475 60.0306 5.11767 60.0131 5.1235C59.9898 5.12933 59.9694 5.13224 59.9519 5.13224C59.9344 5.13807 59.9169 5.1439 59.8995 5.14973C59.882 5.14973 59.8616 5.15264 59.8382 5.15847C59.8208 5.1643 59.8062 5.17013 59.7945 5.17596C59.7596 5.18179 59.7275 5.19053 59.6984 5.20219H59.6896C59.678 5.20801 59.6663 5.21093 59.6546 5.21093C59.6313 5.22259 59.608 5.23133 59.5847 5.23716C59.5672 5.24299 59.5526 5.24882 59.541 5.25464C59.5177 5.2663 59.4973 5.27505 59.4798 5.28087C59.4623 5.2867 59.4477 5.29253 59.4361 5.29836C59.4127 5.31002 59.3894 5.32168 59.3661 5.33333C59.3545 5.33916 59.3428 5.34499 59.3311 5.35082C59.302 5.36248 59.2699 5.37705 59.235 5.39454L59.2175 5.41202C59.1883 5.42368 59.1621 5.43825 59.1388 5.45574C59.1271 5.46157 59.1155 5.4674 59.1038 5.47322C59.0805 5.49071 59.0601 5.50528 59.0426 5.51694C59.031 5.52277 59.0193 5.53151 59.0076 5.54317C58.9843 5.55483 58.961 5.5694 58.9377 5.58689L58.9115 5.61311C58.8823 5.6306 58.8532 5.65392 58.824 5.68306C58.8182 5.68306 58.8124 5.68597 58.8066 5.6918C58.7891 5.70929 58.7687 5.72678 58.7454 5.74426L62.9858 8.19235L64.4109 9.01421C64.3993 9.04335 64.3876 9.0725 64.376 9.10164V9.11038C64.3643 9.13953 64.3526 9.16867 64.341 9.19781V9.20656C64.3293 9.2357 64.3177 9.26193 64.306 9.28525C64.3002 9.29107 64.2973 9.2969 64.2973 9.30273C64.2856 9.32605 64.2739 9.35228 64.2623 9.38142C64.2623 9.38725 64.2594 9.39308 64.2535 9.39891C64.2419 9.42222 64.2302 9.44554 64.2186 9.46885C64.2127 9.48051 64.2069 9.49217 64.2011 9.50383L64.1749 9.55628C64.1632 9.5796 64.1515 9.60291 64.1399 9.62623C64.1341 9.63206 64.1311 9.6408 64.1311 9.65246C64.1137 9.6816 64.0962 9.71075 64.0787 9.73989C64.0612 9.76903 64.0437 9.79818 64.0262 9.82732C64.0204 9.83898 64.0146 9.85064 64.0087 9.8623C63.9971 9.87978 63.9854 9.89727 63.9738 9.91475C63.9563 9.93224 63.9417 9.95264 63.9301 9.97596C63.9242 9.98178 63.9184 9.99053 63.9126 10.0022C63.9009 10.0255 63.8863 10.0459 63.8689 10.0634C63.863 10.0692 63.8601 10.075 63.8601 10.0809C63.8426 10.1042 63.8251 10.1275 63.8076 10.1508C63.8018 10.1566 63.7989 10.1596 63.7989 10.1596L63.6153 10.3956C62.7643 11.3224 61.7209 11.7975 60.4852 11.8208H60.3104C60.2812 11.8149 60.2521 11.812 60.2229 11.812C60.1938 11.812 60.1676 11.8091 60.1443 11.8033H60.0656C60.0539 11.8033 60.0452 11.8004 60.0393 11.7945H59.9781C59.9665 11.7887 59.9548 11.7858 59.9432 11.7858H59.8995C59.8878 11.78 59.8732 11.777 59.8557 11.777C59.8441 11.777 59.8324 11.7741 59.8208 11.7683C59.8033 11.7683 59.7858 11.7654 59.7683 11.7596H59.7333C59.7158 11.7537 59.6954 11.7479 59.6721 11.7421H59.6634C59.6401 11.7362 59.6138 11.7304 59.5847 11.7246C59.5556 11.7188 59.5264 11.7129 59.4973 11.7071C59.1126 11.6197 58.7424 11.471 58.3869 11.2612C58.3752 11.2554 58.3636 11.2495 58.3519 11.2437L58.3694 11.2525C57.4893 10.7162 56.886 9.99053 56.5596 9.07541L58.0984 8.66448C58.314 9.17159 58.6754 9.5796 59.1825 9.88853C59.3749 9.99344 59.5701 10.075 59.7683 10.1333C59.7974 10.145 59.8266 10.1537 59.8557 10.1596H59.8645C59.8936 10.1654 59.9199 10.1712 59.9432 10.177C59.949 10.177 59.9577 10.18 59.9694 10.1858C59.9869 10.1858 60.0073 10.1887 60.0306 10.1945C60.0423 10.1945 60.0539 10.1974 60.0656 10.2033C60.0889 10.2033 60.1093 10.2062 60.1268 10.212H60.1705C60.188 10.2179 60.2055 10.2208 60.2229 10.2208C60.2404 10.2208 60.2579 10.2237 60.2754 10.2295H60.4066C60.4299 10.2353 60.4532 10.2383 60.4765 10.2383H60.5027C60.526 10.2383 60.5523 10.2353 60.5814 10.2295H60.6776C60.6834 10.2295 60.6922 10.2266 60.7038 10.2208H60.7825C61.3129 10.1508 61.7821 9.93515 62.1902 9.57377L57.9497 7.12568L56.5333 6.30383C56.6208 6.05319 56.7315 5.81129 56.8656 5.57814C57.2619 4.90783 57.7807 4.3949 58.4219 4.03934C59.063 3.68379 59.7508 3.5031 60.4852 3.49727Z" fill="white"/>
</svg>
