<svg width="72" height="24" viewBox="0 0 72 24" fill="none" xmlns="http://www.w3.org/2000/svg">
<path d="M23.8384 9.245C24.5434 9.245 25.1871 9.42032 25.7695 9.77094C26.3518 10.1216 26.8184 10.5891 27.1624 11.1734C27.5098 11.7578 27.6835 12.4075 27.6835 13.1191V17H26.2088V16.1613C25.5208 16.7216 24.7307 17 23.8384 17C23.1334 17 22.4931 16.8247 21.9107 16.4741C21.3317 16.1234 20.8651 15.6559 20.5211 15.0681C20.1737 14.4803 20 13.8306 20 13.1191C20 12.4075 20.1737 11.7613 20.5211 11.1734C20.8685 10.5891 21.3317 10.1181 21.9107 9.77094C22.4897 9.42032 23.1334 9.245 23.8384 9.245ZM23.6681 10.7163C23.0107 10.7163 22.4522 10.95 21.9924 11.4175C21.5292 11.885 21.2976 12.4488 21.2976 13.1088C21.2976 13.7688 21.5292 14.3428 21.9924 14.8103C22.4556 15.2778 23.0141 15.5116 23.6681 15.5116C24.322 15.5116 24.8908 15.2778 25.3471 14.8103C25.8069 14.3428 26.0351 13.7756 26.0351 13.1088C26.0351 12.4419 25.8069 11.8816 25.3471 11.4175C24.8873 10.95 24.3288 10.7163 23.6681 10.7163ZM26.1441 16.0684C26.1441 16.0684 26.1237 16.0788 26.1203 16.0856C26.1271 16.0788 26.1339 16.0753 26.1441 16.0684ZM26.2156 16.0031C26.2156 16.0031 26.2054 16.0134 26.1986 16.0203C26.2054 16.0134 26.2088 16.01 26.2156 16.0031ZM26.4404 15.79C26.4404 15.79 26.4302 15.79 26.4234 15.7969C26.4302 15.79 26.4336 15.79 26.4404 15.79ZM26.5868 15.6181C26.5868 15.6181 26.5868 15.6284 26.58 15.6353C26.5868 15.6284 26.5868 15.625 26.5868 15.6181ZM26.6584 15.5288C26.6584 15.5288 26.6482 15.5494 26.6413 15.5528C26.6482 15.5459 26.6516 15.5391 26.6584 15.5288ZM26.7231 15.4463C26.7231 15.4463 26.7129 15.4669 26.7061 15.4703C26.7129 15.4634 26.7163 15.4566 26.7231 15.4463ZM27.0228 14.9994C27.0228 14.9994 27.0126 15.0097 27.0058 15.0166C27.0126 15.0097 27.016 15.0063 27.0228 14.9994ZM27.0705 14.9031C27.0705 14.9031 27.0603 14.9238 27.0534 14.9272C27.0603 14.9203 27.0637 14.9134 27.0705 14.9031ZM27.1182 14.8069C27.1182 14.8069 27.1079 14.8275 27.1011 14.8378C27.1079 14.8275 27.1113 14.8172 27.1182 14.8069ZM27.159 14.7175C27.159 14.7175 27.159 14.7381 27.1522 14.7416C27.159 14.7347 27.159 14.7278 27.159 14.7175ZM27.2067 14.6213C27.2067 14.6213 27.1965 14.6419 27.1897 14.6453C27.1965 14.6384 27.1999 14.6316 27.2067 14.6213ZM27.2884 14.4081C27.2884 14.4081 27.2816 14.4219 27.2816 14.4322C27.2816 14.4219 27.2816 14.4116 27.2884 14.4081ZM27.3191 14.3016C27.3191 14.3016 27.3191 14.3222 27.3123 14.3325C27.3191 14.3222 27.3191 14.3119 27.3191 14.3016ZM27.3498 14.195C27.3498 14.195 27.3498 14.2156 27.3429 14.2259C27.3498 14.2156 27.3498 14.2053 27.3498 14.195ZM27.3804 14.0988C27.3804 14.0988 27.3736 14.1194 27.3736 14.1297C27.3736 14.1194 27.3736 14.1091 27.3804 14.0988ZM27.4042 13.9922C27.4042 13.9922 27.3974 14.0128 27.3974 14.0231C27.3974 14.0128 27.3974 14.0025 27.4042 13.9922ZM27.4281 13.8959C27.4281 13.8959 27.4213 13.9063 27.4213 13.9131C27.4213 13.9063 27.4213 13.9028 27.4281 13.8959ZM27.4519 13.7653C27.4519 13.7653 27.4451 13.7791 27.4451 13.7894C27.4451 13.7791 27.4451 13.7688 27.4519 13.7653ZM27.469 13.6519C27.469 13.6519 27.469 13.6725 27.4621 13.6828C27.469 13.6725 27.469 13.6622 27.469 13.6519ZM27.486 13.5384C27.486 13.5384 27.4792 13.5694 27.4792 13.5797C27.4792 13.5694 27.4792 13.5556 27.486 13.5384ZM27.4928 13.4319C27.4928 13.4319 27.4928 13.4628 27.486 13.4731C27.4928 13.4628 27.4928 13.4491 27.4928 13.4319Z" fill="white"/>
<path d="M28.6508 9.245H30.1187V10.1009C30.4524 9.83625 30.8237 9.62657 31.2324 9.47532C31.6411 9.32407 32.0702 9.24844 32.5232 9.24844C32.9762 9.24844 33.4325 9.3275 33.8549 9.48907C34.2738 9.65063 34.6518 9.87407 34.9924 10.1594L33.9536 11.2078C33.5381 10.8881 33.0647 10.7266 32.5266 10.7266C31.8659 10.7266 31.3039 10.9603 30.8475 11.4278C30.3877 11.8953 30.1595 12.4591 30.1595 13.1191H30.1289V17H28.661V9.245H28.6508Z" fill="white"/>
<path d="M35.9529 6H37.4208V7.48156H35.9529V6ZM35.9529 9.245H37.4208V17H35.9529V9.245Z" fill="white"/>
<path d="M42.223 9.245C42.928 9.245 43.5717 9.42032 44.154 9.77094C44.7364 10.1216 45.203 10.5891 45.547 11.1734C45.8944 11.7578 46.0681 12.4075 46.0681 13.1191V17H44.5934V16.1613C43.9054 16.7216 43.1153 17 42.223 17C41.5179 17 40.8777 16.8247 40.2953 16.4741C39.7163 16.1234 39.2497 15.6559 38.9057 15.0681C38.5583 14.4803 38.3846 13.8306 38.3846 13.1191C38.3846 12.4075 38.5583 11.7613 38.9057 11.1734C39.2531 10.5891 39.7163 10.1181 40.2953 9.77094C40.8742 9.42032 41.5179 9.245 42.223 9.245ZM42.0527 10.7163C41.3953 10.7163 40.8368 10.95 40.377 11.4175C39.9138 11.885 39.6822 12.4488 39.6822 13.1088C39.6822 13.7688 39.9138 14.3428 40.377 14.8103C40.8402 15.2778 41.3987 15.5116 42.0527 15.5116C42.7066 15.5116 43.2753 15.2778 43.7317 14.8103C44.1915 14.3428 44.4197 13.7756 44.4197 13.1088C44.4197 12.4419 44.1915 11.8816 43.7317 11.4175C43.2719 10.95 42.7134 10.7163 42.0527 10.7163ZM44.5287 16.0684C44.5287 16.0684 44.5083 16.0788 44.5048 16.0856C44.5117 16.0788 44.5185 16.0753 44.5287 16.0684ZM44.6002 16.0031C44.6002 16.0031 44.59 16.0134 44.5832 16.0203C44.59 16.0134 44.5934 16.01 44.6002 16.0031ZM44.825 15.79C44.825 15.79 44.8148 15.79 44.808 15.7969C44.8148 15.79 44.8182 15.79 44.825 15.79ZM44.9714 15.6181C44.9714 15.6181 44.9714 15.6284 44.9646 15.6353C44.9714 15.6284 44.9714 15.625 44.9714 15.6181ZM45.043 15.5288C45.043 15.5288 45.0328 15.5494 45.0259 15.5528C45.0328 15.5459 45.0362 15.5391 45.043 15.5288ZM45.1077 15.4463C45.1077 15.4463 45.0975 15.4669 45.0906 15.4703C45.0975 15.4634 45.1009 15.4566 45.1077 15.4463ZM45.4074 14.9994C45.4074 14.9994 45.3972 15.0097 45.3904 15.0166C45.3972 15.0097 45.4006 15.0063 45.4074 14.9994ZM45.4551 14.9031C45.4551 14.9031 45.4449 14.9238 45.438 14.9272C45.4449 14.9203 45.4483 14.9134 45.4551 14.9031ZM45.5028 14.8069C45.5028 14.8069 45.4925 14.8275 45.4857 14.8378C45.4925 14.8275 45.4959 14.8172 45.5028 14.8069ZM45.5436 14.7175C45.5436 14.7175 45.5436 14.7381 45.5368 14.7416C45.5436 14.7347 45.5436 14.7278 45.5436 14.7175ZM45.5913 14.6213C45.5913 14.6213 45.5811 14.6419 45.5743 14.6453C45.5811 14.6384 45.5845 14.6316 45.5913 14.6213ZM45.673 14.4081C45.673 14.4081 45.6662 14.4219 45.6662 14.4322C45.6662 14.4219 45.6662 14.4116 45.673 14.4081ZM45.7037 14.3016C45.7037 14.3016 45.7037 14.3222 45.6969 14.3325C45.7037 14.3222 45.7037 14.3119 45.7037 14.3016ZM45.7343 14.195C45.7343 14.195 45.7343 14.2156 45.7275 14.2259C45.7343 14.2156 45.7343 14.2053 45.7343 14.195ZM45.765 14.0988C45.765 14.0988 45.7582 14.1194 45.7582 14.1297C45.7582 14.1194 45.7582 14.1091 45.765 14.0988ZM45.7888 13.9922C45.7888 13.9922 45.782 14.0128 45.782 14.0231C45.782 14.0128 45.782 14.0025 45.7888 13.9922ZM45.8127 13.8959C45.8127 13.8959 45.8059 13.9063 45.8059 13.9131C45.8059 13.9063 45.8059 13.9028 45.8127 13.8959ZM45.8365 13.7653C45.8365 13.7653 45.8297 13.7791 45.8297 13.7894C45.8297 13.7791 45.8297 13.7688 45.8365 13.7653ZM45.8536 13.6519C45.8536 13.6519 45.8536 13.6725 45.8467 13.6828C45.8536 13.6725 45.8536 13.6622 45.8536 13.6519ZM45.8706 13.5384C45.8706 13.5384 45.8638 13.5694 45.8638 13.5797C45.8638 13.5694 45.8638 13.5556 45.8706 13.5384ZM45.8774 13.4319C45.8774 13.4319 45.8774 13.4628 45.8706 13.4731C45.8774 13.4628 45.8774 13.4491 45.8774 13.4319Z" fill="white"/>
<path d="M48.946 16.4741C48.367 16.1234 47.9004 15.6559 47.5565 15.0681C47.2091 14.4803 47.0354 13.8306 47.0354 13.1191C47.0354 12.4075 47.2091 11.7613 47.5565 11.1734C47.9039 10.5891 48.367 10.1181 48.946 9.77094C49.525 9.42031 50.1687 9.245 50.8737 9.245C51.766 9.245 52.5562 9.52 53.2442 10.0734V6H54.7189V13.1191C54.7189 13.8306 54.5452 14.4803 54.1978 15.0681C53.8504 15.6559 53.3872 16.1269 52.8048 16.4741C52.2224 16.8247 51.5787 17 50.8737 17C50.1687 17 49.5284 16.8247 48.946 16.4741ZM52.5528 14.8137C53.0126 14.3497 53.2408 13.7859 53.2408 13.1156C53.2408 12.4453 53.0126 11.8884 52.5528 11.4244C52.093 10.9569 51.5345 10.7231 50.8737 10.7231C50.213 10.7231 49.6579 10.9569 49.1981 11.4244C48.7383 11.8919 48.5033 12.4556 48.5033 13.1156C48.5033 13.7756 48.7349 14.3497 49.1981 14.8137C49.6613 15.2778 50.2198 15.5081 50.8737 15.5081C51.5276 15.5081 52.0964 15.2778 52.5528 14.8137ZM53.3225 10.1388C53.3225 10.1388 53.3361 10.1491 53.3463 10.1559C53.3361 10.1491 53.3259 10.1456 53.3225 10.1388ZM53.4042 10.2041C53.4042 10.2041 53.4145 10.2247 53.4213 10.2281C53.4145 10.2213 53.4111 10.2144 53.4042 10.2041ZM53.5507 10.3519C53.5507 10.3519 53.5711 10.3622 53.5745 10.3691C53.5677 10.3622 53.5609 10.3587 53.5507 10.3519ZM53.6324 10.4344C53.6324 10.4344 53.6427 10.4344 53.6495 10.4412C53.6427 10.4344 53.6392 10.4344 53.6324 10.4344ZM53.7857 10.5959C53.7857 10.5959 53.7925 10.6062 53.7925 10.6131C53.7925 10.6062 53.7925 10.6028 53.7857 10.5959ZM53.8504 10.6784C53.8504 10.6784 53.8606 10.6887 53.8674 10.6956C53.8606 10.6887 53.8572 10.6853 53.8504 10.6784ZM53.9151 10.7506C53.9151 10.7506 53.9253 10.7712 53.9321 10.7816C53.9253 10.7712 53.9219 10.7609 53.9151 10.7506ZM54.0343 10.9225C54.0343 10.9225 54.0445 10.9431 54.0514 10.9466C54.0445 10.9397 54.0411 10.9328 54.0343 10.9225ZM54.099 11.0188C54.099 11.0188 54.099 11.0256 54.1058 11.0256C54.099 11.0256 54.099 11.0256 54.099 11.0188ZM54.2114 11.2044C54.2114 11.2044 54.2216 11.225 54.2285 11.2284C54.2216 11.2216 54.2182 11.2147 54.2114 11.2044ZM54.2591 11.2937C54.2591 11.2937 54.2693 11.3144 54.2761 11.3247C54.2693 11.3144 54.2659 11.3041 54.2591 11.2937ZM54.3068 11.3831C54.3068 11.3831 54.317 11.4037 54.3238 11.4141C54.317 11.4037 54.3136 11.3934 54.3068 11.3831ZM54.3545 11.4794C54.3545 11.4794 54.3613 11.5 54.3613 11.5103C54.3613 11.5 54.3613 11.4897 54.3545 11.4794ZM54.3953 11.5756C54.3953 11.5756 54.4056 11.5963 54.4124 11.5997C54.4056 11.5928 54.4022 11.5859 54.3953 11.5756ZM54.4839 11.7956C54.4839 11.7956 54.4839 11.8163 54.4907 11.8197C54.4839 11.8128 54.4839 11.8059 54.4839 11.7956ZM54.5145 11.8919C54.5145 11.8919 54.5214 11.9125 54.5214 11.9228C54.5214 11.9125 54.5214 11.9022 54.5145 11.8919ZM54.5452 11.9881C54.5452 11.9881 54.552 12.0122 54.552 12.0294C54.552 12.0122 54.552 11.9984 54.5452 11.9881ZM54.5758 12.0947C54.5758 12.0947 54.5758 12.1153 54.5827 12.1256C54.5758 12.1153 54.5758 12.105 54.5758 12.0947ZM54.5997 12.1909C54.5997 12.1909 54.5997 12.215 54.6065 12.2322C54.5997 12.215 54.5997 12.2013 54.5997 12.1909ZM54.6235 12.3113C54.6235 12.3113 54.6235 12.3216 54.6303 12.3284C54.6235 12.3216 54.6235 12.3181 54.6235 12.3113ZM54.6474 12.435C54.6474 12.435 54.6474 12.4488 54.6542 12.4591C54.6474 12.4488 54.6474 12.4384 54.6474 12.435ZM54.6644 12.5416C54.6644 12.5416 54.6712 12.5622 54.6712 12.5725C54.6712 12.5622 54.6712 12.5519 54.6644 12.5416ZM54.6814 12.6378C54.6814 12.6378 54.6814 12.6688 54.6882 12.6791C54.6814 12.6688 54.6814 12.655 54.6814 12.6378ZM54.6882 12.7512C54.6882 12.7512 54.6951 12.7719 54.6951 12.7822C54.6951 12.7719 54.6951 12.7616 54.6882 12.7512Z" fill="white"/>
<path d="M55.6861 9.245H57.154V10.0734C57.842 9.52 58.6322 9.245 59.5245 9.245C60.2227 9.245 60.8596 9.41688 61.4352 9.75719C62.0107 10.0975 62.4705 10.5547 62.8179 11.1288C63.1653 11.6994 63.3458 12.3422 63.3629 13.0538H63.3697V17H61.8949V13.1122C61.8779 12.435 61.6463 11.8678 61.1933 11.4106C60.7404 10.9534 60.1852 10.7266 59.5245 10.7266C58.8638 10.7266 58.3086 10.9603 57.8488 11.4278C57.3856 11.8953 57.154 12.4591 57.154 13.1191V17H55.6861V9.245Z" fill="white"/>
<path d="M67.9948 9.25531H68.349C68.4035 9.26219 68.458 9.26218 68.5193 9.26218C68.5737 9.26906 68.6282 9.27594 68.6793 9.28625H68.6861C68.7406 9.29312 68.7951 9.3 68.8462 9.31031H68.853C68.9075 9.32062 68.9586 9.33094 69.0063 9.34125H69.0233C69.071 9.35844 69.1187 9.37219 69.1698 9.3825C69.1766 9.3825 69.18 9.3825 69.1868 9.38937C69.2345 9.39968 69.2822 9.41343 69.3332 9.43062H69.3503C69.3945 9.44781 69.4388 9.46156 69.4865 9.47875C69.4933 9.48562 69.4967 9.48562 69.5035 9.48562C69.5512 9.50281 69.5989 9.52 69.6398 9.54406C69.6466 9.54406 69.6534 9.54406 69.6636 9.55093C69.7079 9.56812 69.7453 9.58531 69.7828 9.60937C69.793 9.61625 69.7998 9.61625 69.8067 9.61625C69.8509 9.63687 69.8884 9.66093 69.9259 9.68156C69.9361 9.68843 69.9463 9.69187 69.9565 9.69875C69.994 9.71594 70.0314 9.73312 70.0689 9.75719C70.0791 9.76406 70.0893 9.7675 70.0996 9.77437C70.1302 9.80187 70.1677 9.82593 70.2051 9.84656C70.2154 9.85343 70.2256 9.85687 70.2358 9.86375C70.2732 9.88437 70.3073 9.90843 70.3414 9.93593C70.3516 9.94281 70.3618 9.94969 70.372 9.96L70.4674 10.0322C70.4674 10.0322 70.4878 10.0459 70.498 10.0562L70.5934 10.1284C70.5934 10.1284 70.6138 10.1491 70.624 10.1525V10.1594C71.3018 10.7334 71.7378 11.4759 71.9285 12.38C71.9762 12.6172 72 12.8647 72 13.1191C72 13.3734 71.9762 13.6209 71.9285 13.8581H65.9002C66.0603 14.3462 66.3463 14.745 66.7516 15.0509C67.1569 15.3569 67.6269 15.5116 68.1582 15.5116C68.6895 15.5116 69.18 15.35 69.5921 15.0303L70.624 16.0787C70.2903 16.3675 69.9122 16.5909 69.4899 16.7491C69.0676 16.9106 68.6248 16.9897 68.1548 16.9897C67.5384 16.9897 66.9628 16.8522 66.4349 16.5772C65.907 16.3022 65.4608 15.9309 65.1032 15.46C64.7456 14.9891 64.5072 14.4528 64.3914 13.8581C64.3744 13.7653 64.3608 13.6759 64.3505 13.59C64.3437 13.5831 64.3437 13.5797 64.3437 13.5728C64.3437 13.5453 64.3437 13.5178 64.3369 13.4903V13.4731C64.3369 13.4456 64.3369 13.4216 64.3301 13.4009V13.3047C64.3301 13.3047 64.3233 13.2703 64.3233 13.2462V12.9953C64.3233 12.9678 64.3233 12.9437 64.3301 12.9231V12.8337C64.3369 12.8131 64.3369 12.7891 64.3369 12.7616V12.7375C64.3437 12.7169 64.3437 12.6928 64.3437 12.6653C64.3437 12.6584 64.3437 12.655 64.3505 12.6481C64.3505 12.6206 64.3505 12.5931 64.3573 12.5656V12.5587C64.3642 12.5278 64.3676 12.4969 64.3744 12.4694C64.3812 12.4384 64.3846 12.4075 64.3914 12.38C64.4016 12.3216 64.4118 12.2666 64.4221 12.2184V12.2116C64.4663 12.05 64.5174 11.8884 64.5753 11.7303C64.5923 11.6822 64.6094 11.6341 64.6332 11.5825L64.64 11.5756C64.7047 11.4244 64.7763 11.28 64.858 11.1459C64.858 11.1391 64.858 11.1391 64.8648 11.1391C64.8921 11.0944 64.9193 11.0531 64.9466 11.0084C64.9466 11.0016 64.9466 10.9981 64.9534 10.9912C64.9806 10.9466 65.0113 10.9087 65.0419 10.8675V10.8606C65.0998 10.7747 65.1645 10.6887 65.236 10.6097C65.2429 10.6097 65.2429 10.6097 65.2429 10.6028C65.2735 10.565 65.3076 10.5272 65.3382 10.4894C65.345 10.4894 65.3484 10.4894 65.3553 10.4825C65.3859 10.4447 65.4234 10.4103 65.4608 10.3759C65.4608 10.3691 65.4608 10.3691 65.4676 10.3691C65.5426 10.2934 65.6175 10.2212 65.6924 10.1559L65.6992 10.1491L65.8218 10.0528C65.8218 10.0528 65.8321 10.0528 65.8389 10.0459C65.8763 10.015 65.9138 9.98406 65.9513 9.95656C65.9581 9.94969 65.9615 9.94968 65.9683 9.94968C66.0126 9.91875 66.0534 9.88781 66.0977 9.86031C66.142 9.83281 66.1829 9.80531 66.2271 9.77781H66.2442C66.2816 9.75031 66.3259 9.72625 66.3736 9.70562C66.3804 9.69875 66.3838 9.69531 66.3906 9.68843C66.4349 9.66781 66.4758 9.64375 66.52 9.62312C66.5269 9.62312 66.5337 9.62312 66.5439 9.61625C66.5882 9.59562 66.629 9.575 66.6733 9.55781C66.6801 9.55094 66.6835 9.55093 66.6903 9.55093C66.7346 9.53375 66.7789 9.51656 66.8266 9.4925H66.8334L66.9798 9.44437C66.9798 9.44437 66.99 9.4375 66.9969 9.4375C67.0445 9.42031 67.0922 9.40656 67.1433 9.39625C67.1501 9.38937 67.1569 9.38937 67.1671 9.38937C67.2148 9.37906 67.2625 9.36531 67.3034 9.34812H67.3272C67.3749 9.33781 67.4226 9.3275 67.4737 9.31718H67.4805C67.5282 9.30687 67.5792 9.29656 67.6337 9.29312H67.6576C67.7053 9.28625 67.7529 9.28281 67.804 9.27593C67.8108 9.26906 67.8177 9.26906 67.8279 9.26906C67.8756 9.26906 67.9266 9.26906 67.9811 9.26218L67.9948 9.25531ZM68.1719 10.7369C68.1072 10.7369 68.0424 10.7369 67.9777 10.7437H67.9709C67.913 10.7506 67.8517 10.7541 67.7938 10.7609C67.787 10.7678 67.7836 10.7678 67.7768 10.7678C67.7189 10.7781 67.6576 10.7884 67.5997 10.7987H67.5929C67.535 10.8159 67.4771 10.8331 67.4226 10.8572H67.4158C67.3579 10.8744 67.3 10.895 67.2455 10.9225H67.2387C67.1842 10.9431 67.1297 10.9706 67.0786 11.005H67.0718C67.0241 11.0325 66.973 11.0634 66.9185 11.0944C66.864 11.1253 66.8129 11.1631 66.7653 11.2009C66.6699 11.2731 66.5779 11.3487 66.4894 11.4381V11.445C66.4451 11.4897 66.4076 11.5309 66.3702 11.5756H66.3634C66.3259 11.6237 66.2919 11.6719 66.2578 11.7234H66.251C66.1113 11.9228 66.0024 12.1462 65.9206 12.3903H70.4333C70.2733 11.9022 69.994 11.5103 69.5955 11.2112C69.5887 11.2044 69.5853 11.2009 69.5785 11.1941C69.5342 11.1631 69.4899 11.1322 69.4422 11.1047C69.4354 11.0978 69.432 11.0944 69.4252 11.0875C69.3775 11.06 69.3298 11.0325 69.289 11.005C69.2788 11.005 69.2685 11.005 69.2651 10.9981L69.1187 10.9259C69.1187 10.9259 69.1051 10.9259 69.0948 10.9191C69.0472 10.8984 68.9961 10.8778 68.9416 10.8606C68.9348 10.8606 68.9314 10.8606 68.9245 10.8537L68.7543 10.8056H68.7474C68.6895 10.7884 68.6282 10.7781 68.5703 10.7747L68.5635 10.7678C68.4988 10.7609 68.4375 10.7575 68.3796 10.7506H68.3728C68.3081 10.7437 68.2434 10.7437 68.1787 10.7437L68.1719 10.7369Z" fill="white"/>
<path d="M14 11.965C13.9803 8.115 10.8544 5 7 5C3.14562 5 0 8.13469 0 12C0 15.8653 3.13469 19 7 19C8.83969 19 10.5131 18.2891 11.7622 17.1297V19H14V11.965ZM7 17.5541C3.93313 17.5541 1.44594 15.0669 1.44594 12C1.44594 8.93313 3.93313 6.44594 7 6.44594C9.8 6.44594 12.1078 8.51969 12.4906 11.2125H11.2547C10.885 9.19781 9.12187 7.66875 7 7.66875C4.60906 7.66875 2.66875 9.60687 2.66875 12C2.66875 14.1306 4.20875 15.8981 6.23656 16.2591V14.8306C5.2325 14.5616 4.44062 13.7741 4.16719 12.77H5.40969C5.70062 13.3541 6.3 13.7566 6.99781 13.7566C7.97781 13.7566 8.77187 12.9625 8.77187 11.9825C8.77187 11.0025 7.97781 10.2084 6.99781 10.2084C6.28906 10.2084 5.68094 10.6241 5.39656 11.2256H4.16937C4.50844 9.97875 5.64594 9.06219 6.99781 9.06219C8.61875 9.06219 9.93344 10.3769 9.93344 11.9978C9.93344 13.3541 9.01031 14.4937 7.76125 14.8284V16.2569C9.54187 15.9397 10.9484 14.5375 11.2634 12.7547H12.495C12.1253 15.4628 9.80875 17.5497 7 17.5497V17.5541Z" fill="white"/>
</svg>
