<svg width="77" height="16" viewBox="0 0 77 16" fill="none" xmlns="http://www.w3.org/2000/svg">
<path d="M5.635 4.72C6.67 4.72 7.615 4.975 8.47 5.485C9.325 5.995 10.01 6.675 10.515 7.525C11.025 8.375 11.28 9.32 11.28 10.355V16H9.115V14.78C8.105 15.595 6.945 16 5.635 16C4.6 16 3.66 15.745 2.805 15.235C1.955 14.725 1.27 14.045 0.765 13.19C0.255 12.335 0 11.39 0 10.355C0 9.32 0.255 8.38 0.765 7.525C1.275 6.675 1.955 5.99 2.805 5.485C3.655 4.975 4.6 4.72 5.635 4.72ZM5.385 6.86C4.42 6.86 3.6 7.2 2.925 7.88C2.245 8.56 1.905 9.38 1.905 10.34C1.905 11.3 2.245 12.135 2.925 12.815C3.605 13.495 4.425 13.835 5.385 13.835C6.345 13.835 7.18 13.495 7.85 12.815C8.525 12.135 8.86 11.31 8.86 10.34C8.86 9.37 8.525 8.555 7.85 7.88C7.175 7.2 6.355 6.86 5.385 6.86ZM9.02 14.645C9.02 14.645 8.99 14.66 8.985 14.67C8.995 14.66 9.005 14.655 9.02 14.645ZM9.125 14.55C9.125 14.55 9.11 14.565 9.1 14.575C9.11 14.565 9.115 14.56 9.125 14.55ZM9.455 14.24C9.455 14.24 9.44 14.24 9.43 14.25C9.44 14.24 9.445 14.24 9.455 14.24ZM9.67 13.99C9.67 13.99 9.67 14.005 9.66 14.015C9.67 14.005 9.67 14 9.67 13.99ZM9.775 13.86C9.775 13.86 9.76 13.89 9.75 13.895C9.76 13.885 9.765 13.875 9.775 13.86ZM9.87 13.74C9.87 13.74 9.855 13.77 9.845 13.775C9.855 13.765 9.86 13.755 9.87 13.74ZM10.31 13.09C10.31 13.09 10.295 13.105 10.285 13.115C10.295 13.105 10.3 13.1 10.31 13.09ZM10.38 12.95C10.38 12.95 10.365 12.98 10.355 12.985C10.365 12.975 10.37 12.965 10.38 12.95ZM10.45 12.81C10.45 12.81 10.435 12.84 10.425 12.855C10.435 12.84 10.44 12.825 10.45 12.81ZM10.51 12.68C10.51 12.68 10.51 12.71 10.5 12.715C10.51 12.705 10.51 12.695 10.51 12.68ZM10.58 12.54C10.58 12.54 10.565 12.57 10.555 12.575C10.565 12.565 10.57 12.555 10.58 12.54ZM10.7 12.23C10.7 12.23 10.69 12.25 10.69 12.265C10.69 12.25 10.69 12.235 10.7 12.23ZM10.745 12.075C10.745 12.075 10.745 12.105 10.735 12.12C10.745 12.105 10.745 12.09 10.745 12.075ZM10.79 11.92C10.79 11.92 10.79 11.95 10.78 11.965C10.79 11.95 10.79 11.935 10.79 11.92ZM10.835 11.78C10.835 11.78 10.825 11.81 10.825 11.825C10.825 11.81 10.825 11.795 10.835 11.78ZM10.87 11.625C10.87 11.625 10.86 11.655 10.86 11.67C10.86 11.655 10.86 11.64 10.87 11.625ZM10.905 11.485C10.905 11.485 10.895 11.5 10.895 11.51C10.895 11.5 10.895 11.495 10.905 11.485ZM10.94 11.295C10.94 11.295 10.93 11.315 10.93 11.33C10.93 11.315 10.93 11.3 10.94 11.295ZM10.965 11.13C10.965 11.13 10.965 11.16 10.955 11.175C10.965 11.16 10.965 11.145 10.965 11.13ZM10.99 10.965C10.99 10.965 10.98 11.01 10.98 11.025C10.98 11.01 10.98 10.99 10.99 10.965ZM11 10.81C11 10.81 11 10.855 10.99 10.87C11 10.855 11 10.835 11 10.81Z" fill="white"/>
<path d="M12.7 4.72H14.855V5.965C15.345 5.58 15.89 5.275 16.49 5.055C17.09 4.835 17.72 4.725 18.385 4.725C19.05 4.725 19.72 4.84 20.34 5.075C20.955 5.31 21.51 5.635 22.01 6.05L20.485 7.575C19.875 7.11 19.18 6.875 18.39 6.875C17.42 6.875 16.595 7.215 15.925 7.895C15.25 8.575 14.915 9.395 14.915 10.355H14.87V16H12.715V4.72H12.7Z" fill="white"/>
<path d="M23.42 0H25.575V2.155H23.42V0ZM23.42 4.72H25.575V16H23.42V4.72Z" fill="white"/>
<path d="M32.625 4.72C33.66 4.72 34.605 4.975 35.46 5.485C36.315 5.995 37 6.675 37.505 7.525C38.015 8.375 38.27 9.32 38.27 10.355V16H36.105V14.78C35.095 15.595 33.935 16 32.625 16C31.59 16 30.65 15.745 29.795 15.235C28.945 14.725 28.26 14.045 27.755 13.19C27.245 12.335 26.99 11.39 26.99 10.355C26.99 9.32 27.245 8.38 27.755 7.525C28.265 6.675 28.945 5.99 29.795 5.485C30.645 4.975 31.59 4.72 32.625 4.72ZM32.375 6.86C31.41 6.86 30.59 7.2 29.915 7.88C29.235 8.56 28.895 9.38 28.895 10.34C28.895 11.3 29.235 12.135 29.915 12.815C30.595 13.495 31.415 13.835 32.375 13.835C33.335 13.835 34.17 13.495 34.84 12.815C35.515 12.135 35.85 11.31 35.85 10.34C35.85 9.37 35.515 8.555 34.84 7.88C34.165 7.2 33.345 6.86 32.375 6.86ZM36.01 14.645C36.01 14.645 35.98 14.66 35.975 14.67C35.985 14.66 35.995 14.655 36.01 14.645ZM36.115 14.55C36.115 14.55 36.1 14.565 36.09 14.575C36.1 14.565 36.105 14.56 36.115 14.55ZM36.445 14.24C36.445 14.24 36.43 14.24 36.42 14.25C36.43 14.24 36.435 14.24 36.445 14.24ZM36.66 13.99C36.66 13.99 36.66 14.005 36.65 14.015C36.66 14.005 36.66 14 36.66 13.99ZM36.765 13.86C36.765 13.86 36.75 13.89 36.74 13.895C36.75 13.885 36.755 13.875 36.765 13.86ZM36.86 13.74C36.86 13.74 36.845 13.77 36.835 13.775C36.845 13.765 36.85 13.755 36.86 13.74ZM37.3 13.09C37.3 13.09 37.285 13.105 37.275 13.115C37.285 13.105 37.29 13.1 37.3 13.09ZM37.37 12.95C37.37 12.95 37.355 12.98 37.345 12.985C37.355 12.975 37.36 12.965 37.37 12.95ZM37.44 12.81C37.44 12.81 37.425 12.84 37.415 12.855C37.425 12.84 37.43 12.825 37.44 12.81ZM37.5 12.68C37.5 12.68 37.5 12.71 37.49 12.715C37.5 12.705 37.5 12.695 37.5 12.68ZM37.57 12.54C37.57 12.54 37.555 12.57 37.545 12.575C37.555 12.565 37.56 12.555 37.57 12.54ZM37.69 12.23C37.69 12.23 37.68 12.25 37.68 12.265C37.68 12.25 37.68 12.235 37.69 12.23ZM37.735 12.075C37.735 12.075 37.735 12.105 37.725 12.12C37.735 12.105 37.735 12.09 37.735 12.075ZM37.78 11.92C37.78 11.92 37.78 11.95 37.77 11.965C37.78 11.95 37.78 11.935 37.78 11.92ZM37.825 11.78C37.825 11.78 37.815 11.81 37.815 11.825C37.815 11.81 37.815 11.795 37.825 11.78ZM37.86 11.625C37.86 11.625 37.85 11.655 37.85 11.67C37.85 11.655 37.85 11.64 37.86 11.625ZM37.895 11.485C37.895 11.485 37.885 11.5 37.885 11.51C37.885 11.5 37.885 11.495 37.895 11.485ZM37.93 11.295C37.93 11.295 37.92 11.315 37.92 11.33C37.92 11.315 37.92 11.3 37.93 11.295ZM37.955 11.13C37.955 11.13 37.955 11.16 37.945 11.175C37.955 11.16 37.955 11.145 37.955 11.13ZM37.98 10.965C37.98 10.965 37.97 11.01 37.97 11.025C37.97 11.01 37.97 10.99 37.98 10.965ZM37.99 10.81C37.99 10.81 37.99 10.855 37.98 10.87C37.99 10.855 37.99 10.835 37.99 10.81Z" fill="white"/>
<path d="M42.495 15.235C41.645 14.725 40.96 14.045 40.455 13.19C39.945 12.335 39.69 11.39 39.69 10.355C39.69 9.32 39.945 8.38 40.455 7.525C40.965 6.675 41.645 5.99 42.495 5.485C43.345 4.975 44.29 4.72 45.325 4.72C46.635 4.72 47.795 5.12 48.805 5.925V0H50.97V10.355C50.97 11.39 50.715 12.335 50.205 13.19C49.695 14.045 49.015 14.73 48.16 15.235C47.305 15.745 46.36 16 45.325 16C44.29 16 43.35 15.745 42.495 15.235ZM47.79 12.82C48.465 12.145 48.8 11.325 48.8 10.35C48.8 9.375 48.465 8.565 47.79 7.89C47.115 7.21 46.295 6.87 45.325 6.87C44.355 6.87 43.54 7.21 42.865 7.89C42.19 8.57 41.845 9.39 41.845 10.35C41.845 11.31 42.185 12.145 42.865 12.82C43.545 13.495 44.365 13.83 45.325 13.83C46.285 13.83 47.12 13.495 47.79 12.82ZM48.92 6.02C48.92 6.02 48.94 6.035 48.955 6.045C48.94 6.035 48.925 6.03 48.92 6.02ZM49.04 6.115C49.04 6.115 49.055 6.145 49.065 6.15C49.055 6.14 49.05 6.13 49.04 6.115ZM49.255 6.33C49.255 6.33 49.285 6.345 49.29 6.355C49.28 6.345 49.27 6.34 49.255 6.33ZM49.375 6.45C49.375 6.45 49.39 6.45 49.4 6.46C49.39 6.45 49.385 6.45 49.375 6.45ZM49.6 6.685C49.6 6.685 49.61 6.7 49.61 6.71C49.61 6.7 49.61 6.695 49.6 6.685ZM49.695 6.805C49.695 6.805 49.71 6.82 49.72 6.83C49.71 6.82 49.705 6.815 49.695 6.805ZM49.79 6.91C49.79 6.91 49.805 6.94 49.815 6.955C49.805 6.94 49.8 6.925 49.79 6.91ZM49.965 7.16C49.965 7.16 49.98 7.19 49.99 7.195C49.98 7.185 49.975 7.175 49.965 7.16ZM50.06 7.3C50.06 7.3 50.06 7.31 50.07 7.31C50.06 7.31 50.06 7.31 50.06 7.3ZM50.225 7.57C50.225 7.57 50.24 7.6 50.25 7.605C50.24 7.595 50.235 7.585 50.225 7.57ZM50.295 7.7C50.295 7.7 50.31 7.73 50.32 7.745C50.31 7.73 50.305 7.715 50.295 7.7ZM50.365 7.83C50.365 7.83 50.38 7.86 50.39 7.875C50.38 7.86 50.375 7.845 50.365 7.83ZM50.435 7.97C50.435 7.97 50.445 8 50.445 8.015C50.445 8 50.445 7.985 50.435 7.97ZM50.495 8.11C50.495 8.11 50.51 8.14 50.52 8.145C50.51 8.135 50.505 8.125 50.495 8.11ZM50.625 8.43C50.625 8.43 50.625 8.46 50.635 8.465C50.625 8.455 50.625 8.445 50.625 8.43ZM50.67 8.57C50.67 8.57 50.68 8.6 50.68 8.615C50.68 8.6 50.68 8.585 50.67 8.57ZM50.715 8.71C50.715 8.71 50.725 8.745 50.725 8.77C50.725 8.745 50.725 8.725 50.715 8.71ZM50.76 8.865C50.76 8.865 50.76 8.895 50.77 8.91C50.76 8.895 50.76 8.88 50.76 8.865ZM50.795 9.005C50.795 9.005 50.795 9.04 50.805 9.065C50.795 9.04 50.795 9.02 50.795 9.005ZM50.83 9.18C50.83 9.18 50.83 9.195 50.84 9.205C50.83 9.195 50.83 9.19 50.83 9.18ZM50.865 9.36C50.865 9.36 50.865 9.38 50.875 9.395C50.865 9.38 50.865 9.365 50.865 9.36ZM50.89 9.515C50.89 9.515 50.9 9.545 50.9 9.56C50.9 9.545 50.9 9.53 50.89 9.515ZM50.915 9.655C50.915 9.655 50.915 9.7 50.925 9.715C50.915 9.7 50.915 9.68 50.915 9.655ZM50.925 9.82C50.925 9.82 50.935 9.85 50.935 9.865C50.935 9.85 50.935 9.835 50.925 9.82Z" fill="white"/>
<path d="M52.39 4.72H54.545V5.925C55.555 5.12 56.715 4.72 58.025 4.72C59.05 4.72 59.985 4.97 60.83 5.465C61.675 5.96 62.35 6.625 62.86 7.46C63.37 8.29 63.635 9.225 63.66 10.26H63.67V16H61.505V10.345C61.48 9.36 61.14 8.535 60.475 7.87C59.81 7.205 58.995 6.875 58.025 6.875C57.055 6.875 56.24 7.215 55.565 7.895C54.885 8.575 54.545 9.395 54.545 10.355V16H52.39V4.72Z" fill="white"/>
<path d="M70.46 4.735H70.98C71.06 4.745 71.14 4.745 71.23 4.745C71.31 4.755 71.39 4.765 71.465 4.78H71.475C71.555 4.79 71.635 4.8 71.71 4.815H71.72C71.8 4.83 71.875 4.845 71.945 4.86H71.97C72.04 4.885 72.11 4.905 72.185 4.92C72.195 4.92 72.2 4.92 72.21 4.93C72.28 4.945 72.35 4.965 72.425 4.99H72.45C72.515 5.015 72.58 5.035 72.65 5.06C72.66 5.07 72.665 5.07 72.675 5.07C72.745 5.095 72.815 5.12 72.875 5.155C72.885 5.155 72.895 5.155 72.91 5.165C72.975 5.19 73.03 5.215 73.085 5.25C73.1 5.26 73.11 5.26 73.12 5.26C73.185 5.29 73.24 5.325 73.295 5.355C73.31 5.365 73.325 5.37 73.34 5.38C73.395 5.405 73.45 5.43 73.505 5.465C73.52 5.475 73.535 5.48 73.55 5.49C73.595 5.53 73.65 5.565 73.705 5.595C73.72 5.605 73.735 5.61 73.75 5.62C73.805 5.65 73.855 5.685 73.905 5.725C73.92 5.735 73.935 5.745 73.95 5.76L74.09 5.865C74.09 5.865 74.12 5.885 74.135 5.9L74.275 6.005C74.275 6.005 74.305 6.035 74.32 6.04V6.05C75.315 6.885 75.955 7.965 76.235 9.28C76.305 9.625 76.34 9.985 76.34 10.355C76.34 10.725 76.305 11.085 76.235 11.43H67.385C67.62 12.14 68.04 12.72 68.635 13.165C69.23 13.61 69.92 13.835 70.7 13.835C71.48 13.835 72.2 13.6 72.805 13.135L74.32 14.66C73.83 15.08 73.275 15.405 72.655 15.635C72.035 15.87 71.385 15.985 70.695 15.985C69.79 15.985 68.945 15.785 68.17 15.385C67.395 14.985 66.74 14.445 66.215 13.76C65.69 13.075 65.34 12.295 65.17 11.43C65.145 11.295 65.125 11.165 65.11 11.04C65.1 11.03 65.1 11.025 65.1 11.015C65.1 10.975 65.1 10.935 65.09 10.895V10.87C65.09 10.83 65.09 10.795 65.08 10.765V10.625C65.08 10.625 65.07 10.575 65.07 10.54V10.175C65.07 10.135 65.07 10.1 65.08 10.07V9.94C65.09 9.91 65.09 9.875 65.09 9.835V9.8C65.1 9.77 65.1 9.735 65.1 9.695C65.1 9.685 65.1 9.68 65.11 9.67C65.11 9.63 65.11 9.59 65.12 9.55V9.54C65.13 9.495 65.135 9.45 65.145 9.41C65.155 9.365 65.16 9.32 65.17 9.28C65.185 9.195 65.2 9.115 65.215 9.045V9.035C65.28 8.8 65.355 8.565 65.44 8.335C65.465 8.265 65.49 8.195 65.525 8.12L65.535 8.11C65.63 7.89 65.735 7.68 65.855 7.485C65.855 7.475 65.855 7.475 65.865 7.475C65.905 7.41 65.945 7.35 65.985 7.285C65.985 7.275 65.985 7.27 65.995 7.26C66.035 7.195 66.08 7.14 66.125 7.08V7.07C66.21 6.945 66.305 6.82 66.41 6.705C66.42 6.705 66.42 6.705 66.42 6.695C66.465 6.64 66.515 6.585 66.56 6.53C66.57 6.53 66.575 6.53 66.585 6.52C66.63 6.465 66.685 6.415 66.74 6.365C66.74 6.355 66.74 6.355 66.75 6.355C66.86 6.245 66.97 6.14 67.08 6.045L67.09 6.035L67.27 5.895C67.27 5.895 67.285 5.895 67.295 5.885C67.35 5.84 67.405 5.795 67.46 5.755C67.47 5.745 67.475 5.745 67.485 5.745C67.55 5.7 67.61 5.655 67.675 5.615C67.74 5.575 67.8 5.535 67.865 5.495H67.89C67.945 5.455 68.01 5.42 68.08 5.39C68.09 5.38 68.095 5.375 68.105 5.365C68.17 5.335 68.23 5.3 68.295 5.27C68.305 5.27 68.315 5.27 68.33 5.26C68.395 5.23 68.455 5.2 68.52 5.175C68.53 5.165 68.535 5.165 68.545 5.165C68.61 5.14 68.675 5.115 68.745 5.08H68.755L68.97 5.01C68.97 5.01 68.985 5 68.995 5C69.065 4.975 69.135 4.955 69.21 4.94C69.22 4.93 69.23 4.93 69.245 4.93C69.315 4.915 69.385 4.895 69.445 4.87H69.48C69.55 4.855 69.62 4.84 69.695 4.825H69.705C69.775 4.81 69.85 4.795 69.93 4.79H69.965C70.035 4.78 70.105 4.775 70.18 4.765C70.19 4.755 70.2 4.755 70.215 4.755C70.285 4.755 70.36 4.755 70.44 4.745L70.46 4.735ZM70.72 6.89C70.625 6.89 70.53 6.89 70.435 6.9H70.425C70.34 6.91 70.25 6.915 70.165 6.925C70.155 6.935 70.15 6.935 70.14 6.935C70.055 6.95 69.965 6.965 69.88 6.98H69.87C69.785 7.005 69.7 7.03 69.62 7.065H69.61C69.525 7.09 69.44 7.12 69.36 7.16H69.35C69.27 7.19 69.19 7.23 69.115 7.28H69.105C69.035 7.32 68.96 7.365 68.88 7.41C68.8 7.455 68.725 7.51 68.655 7.565C68.515 7.67 68.38 7.78 68.25 7.91V7.92C68.185 7.985 68.13 8.045 68.075 8.11H68.065C68.01 8.18 67.96 8.25 67.91 8.325H67.9C67.695 8.615 67.535 8.94 67.415 9.295H74.04C73.805 8.585 73.395 8.015 72.81 7.58C72.8 7.57 72.795 7.565 72.785 7.555C72.72 7.51 72.655 7.465 72.585 7.425C72.575 7.415 72.57 7.41 72.56 7.4C72.49 7.36 72.42 7.32 72.36 7.28C72.345 7.28 72.33 7.28 72.325 7.27L72.11 7.165C72.11 7.165 72.09 7.165 72.075 7.155C72.005 7.125 71.93 7.095 71.85 7.07C71.84 7.07 71.835 7.07 71.825 7.06L71.575 6.99H71.565C71.48 6.965 71.39 6.95 71.305 6.945L71.295 6.935C71.2 6.925 71.11 6.92 71.025 6.91H71.015C70.92 6.9 70.825 6.9 70.73 6.9L70.72 6.89Z" fill="white"/>
</svg>
